<svg width="1218" height="1373" viewBox="0 0 1218 1373" fill="none" xmlns="http://www.w3.org/2000/svg">
<path d="M876.784 1257.59C878.182 1140.55 878.182 1140.55 898.045 1136.85C916.646 1133.47 934.02 1125.22 948.403 1112.95C962.786 1100.68 973.665 1084.82 979.937 1066.99C983.032 1060.87 984.834 1054.18 985.23 1047.34C985.627 1040.49 984.61 1033.64 982.243 1027.2C976.232 1003.61 950.783 974.466 924.893 960.588C906.395 950.415 901.3 950.415 658.432 948.101C383.663 945.329 396.592 946.711 345.228 912.479C293.414 878.247 260.573 814.404 260.573 748.705C260.573 716.322 260.573 716.322 613.553 717.712C966.092 719.102 966.092 719.102 1003.54 732.055C1053.03 748.954 1097.64 777.675 1133.52 815.724C1169.39 853.773 1195.44 900.002 1209.4 950.399C1217.73 982.292 1219.12 994.812 1217.29 1056.34C1214.54 1136.39 1207.59 1164.15 1175.22 1218.74C1123.38 1307.53 1028.02 1364.45 919.806 1371.86C913.55 1372.32 908.178 1372.68 903.582 1372.68C875.827 1372.72 875.982 1358.37 876.784 1257.59ZM157.829 947.111C115.97 947.111 75.8255 930.483 46.2269 900.884C16.6283 871.286 0 831.141 0 789.283V0H152.587C174.912 0.0108347 196.319 8.8842 212.105 24.6703C227.892 40.4565 236.765 61.864 236.776 84.1889V373.138C259.198 348.659 286.066 328.662 315.952 314.21C369.679 287.346 422.695 276.454 641.251 248.135C747.994 234.331 860.535 217.616 891.765 211.106C998.508 189.321 1088.55 152.292 1116.86 118.167C1126.86 109.998 1139.55 105.854 1152.44 106.547H1177.85L1173.49 177.692C1169.13 268.464 1150.98 312.746 1100.88 357.045C1046.43 406.413 973.811 426.751 631.086 487.748C573.025 497.905 493.121 514.612 453.189 524.057C360.97 547.289 262.944 595.202 242.615 627.185C240.831 630.199 238.879 633.109 236.768 635.903V920.804C236.768 927.781 233.996 934.472 229.062 939.406C224.129 944.34 217.437 947.111 210.46 947.111H157.829Z" fill="black" fill-opacity="0.04"/>
</svg>
