<svg width="658" height="658" viewBox="0 0 658 658" fill="none" xmlns="http://www.w3.org/2000/svg">
<circle cx="329" cy="329" r="323" stroke="black" stroke-opacity="0.1" stroke-width="12"/>
<path d="M436.417 544.108C436.915 502.401 436.915 502.401 443.993 501.084C450.621 499.879 456.812 496.941 461.937 492.569C467.062 488.197 470.938 482.546 473.173 476.191C474.276 474.011 474.918 471.627 475.059 469.188C475.2 466.75 474.838 464.308 473.994 462.015C471.853 453.608 462.785 443.223 453.559 438.279C446.968 434.654 445.153 434.654 358.614 433.829C260.707 432.841 265.314 433.334 247.012 421.136C228.55 408.939 216.848 386.19 216.848 362.78C216.848 351.241 216.848 351.241 342.622 351.736C468.24 352.232 468.24 352.232 481.582 356.847C499.216 362.869 515.115 373.102 527.897 386.66C540.68 400.218 549.962 416.69 554.936 434.648C557.902 446.012 558.398 450.473 557.748 472.397C556.766 500.921 554.292 510.811 542.756 530.264C524.285 561.903 490.306 582.183 451.747 584.823C449.518 584.989 447.604 585.115 445.966 585.115C436.076 585.129 436.132 580.018 436.417 544.108ZM180.238 433.476C165.323 433.476 151.018 427.551 140.472 417.005C129.925 406.458 124 392.154 124 377.239V96H178.37C186.325 96.0039 193.953 99.1656 199.578 104.791C205.203 110.416 208.365 118.043 208.368 125.998V228.957C216.358 220.235 225.932 213.109 236.581 207.96C255.725 198.388 274.615 194.507 352.492 184.416C390.526 179.497 430.627 173.541 441.755 171.222C479.79 163.459 511.875 150.265 521.963 138.106C525.526 135.195 530.047 133.718 534.641 133.965H543.694L542.141 159.316C540.588 191.66 534.119 207.438 516.269 223.223C496.865 240.814 470.99 248.061 348.87 269.795C328.181 273.414 299.71 279.367 285.481 282.733C252.621 291.011 217.693 308.084 210.449 319.48C209.813 320.554 209.118 321.591 208.365 322.586V424.103C208.365 426.589 207.378 428.973 205.62 430.731C203.862 432.489 201.478 433.476 198.992 433.476H180.238Z" fill="black" fill-opacity="0.1"/>
</svg>
