<svg width="166" height="63" viewBox="0 0 166 63" fill="none" xmlns="http://www.w3.org/2000/svg">
<path d="M31 62C28.9016 62.0005 26.8086 61.7896 24.7525 61.3704C22.7578 60.9618 20.8084 60.3567 18.9328 59.5641C17.0893 58.7835 15.3258 57.8263 13.6667 56.7059C12.0209 55.5929 10.4851 54.3254 9.08021 52.9206C7.67512 51.5158 6.40737 49.9801 5.29424 48.3343C4.17394 46.6755 3.21686 44.9121 2.43638 43.0689C1.64373 41.1936 1.03885 39.2445 0.630433 37.25C0.210944 35.1939 -0.000276324 33.1009 2.71299e-07 31.0024C-0.000233743 28.9018 0.211256 26.8065 0.631278 24.7483C1.03992 22.756 1.64439 20.8089 2.43595 18.9355C3.2164 17.092 4.17362 15.3285 5.29424 13.6696C6.40747 12.0239 7.67521 10.4882 9.08021 9.08334C10.4852 7.67846 12.021 6.41079 13.6667 5.29756C15.3257 4.17701 17.0892 3.21984 18.9328 2.43942C20.8083 1.64677 22.7578 1.04179 24.7525 0.633147C26.8085 0.212901 28.9015 0.000671804 31 4.23117e-07C33.1007 -0.000345268 35.1962 0.211135 37.2545 0.631246C39.2469 1.0396 41.1942 1.64426 43.0676 2.43604C44.911 3.21647 46.6745 4.17364 48.3333 5.29418C49.979 6.40721 51.5149 7.67475 52.9198 9.07954C54.3249 10.4843 55.5926 12.02 56.7058 13.6658C57.8262 15.3246 58.7835 17.0879 59.564 18.9312C60.3566 20.8065 60.9615 22.7555 61.37 24.75C61.7893 26.8061 62.0003 28.8993 62 30.9977C62.0002 33.0983 61.7887 35.1935 61.3687 37.2517C60.9602 39.2439 60.3557 41.1909 59.564 43.0641C58.7835 44.9076 57.8263 46.6711 56.7058 48.33C55.5926 49.9756 54.325 51.5114 52.9202 52.9162C51.5154 54.3211 49.9795 55.5886 48.3337 56.7016C46.6749 57.8221 44.9115 58.7793 43.068 59.5597C41.1927 60.3524 39.2433 60.9575 37.2488 61.3661C35.1926 61.7854 33.0994 61.9965 31.0008 61.9961L31 62ZM26.5546 34.8756C23.7301 34.8756 22.0478 34.9028 21.2473 35.0461C20.4888 35.1819 20.4888 35.4238 20.4888 35.8249C20.4856 36.793 20.7158 37.7476 21.1603 38.6077C21.6047 39.4678 22.2501 40.2079 23.0416 40.7654L23.1984 40.8705L23.2134 40.8805C24.5227 41.761 24.5227 41.761 31.6334 41.8324H31.7266L32.4897 41.8401H32.5953C39.835 41.9093 39.973 41.9102 40.5285 42.2161C41.3313 42.6523 41.9469 43.3669 42.2593 44.2254C42.3301 44.4197 42.3605 44.6264 42.3484 44.8328C42.3364 45.0392 42.2821 45.2409 42.1891 45.4256C41.9993 45.9628 41.671 46.4404 41.2373 46.8101C40.8034 47.1799 40.2794 47.4286 39.7185 47.5309C39.1184 47.6421 39.1184 47.6421 39.0769 51.1734C39.0596 53.3649 39.0531 54.1848 39.3547 54.489C39.4274 54.5505 39.5121 54.5962 39.6034 54.6233C39.6947 54.6504 39.7907 54.6583 39.8852 54.6465C40.0263 54.6465 40.195 54.6339 40.3732 54.6205C41.937 54.5378 43.4568 54.0737 44.7998 53.2685C46.1428 52.4633 47.2684 51.3416 48.0781 50.0014C49.0499 48.3629 49.263 47.5387 49.3478 45.1024C49.4041 43.2298 49.3566 42.8525 49.1104 41.9067C48.6895 40.3862 47.9038 38.9916 46.8214 37.8437C45.7391 36.6958 44.3928 35.8295 42.8996 35.32C41.7708 34.9306 41.7708 34.9306 31.1346 34.8873H31.1168C29.3389 34.8804 27.8021 34.8743 26.5525 34.8743L26.5546 34.8756ZM12.6275 13.2378V37.0471C12.6288 38.3097 13.131 39.5201 14.0237 40.4129C14.9165 41.3057 16.1269 41.808 17.3895 41.8094H18.977C19.1873 41.8091 19.389 41.7254 19.5377 41.5766C19.6864 41.4279 19.7699 41.2263 19.7701 41.0159V32.4206C19.8338 32.3364 19.8928 32.2488 19.9467 32.158C20.1814 31.8419 20.4731 31.5726 20.8068 31.3637C21.2859 31.0402 21.7884 30.7528 22.31 30.5036C23.5881 29.8868 24.9246 29.3987 26.2994 29.0468C27.5252 28.7573 29.9257 28.2562 31.6647 27.9516C36.4471 27.1001 39.8463 26.4517 42.0127 25.8485C44.1709 25.248 45.0765 24.699 45.838 24.0089C47.3454 22.6758 47.8984 21.3109 48.0287 18.5985L48.1584 16.4521H47.3921C47.0032 16.4325 46.6209 16.5575 46.3186 16.803C45.9002 17.3075 45.0328 17.8414 43.8091 18.3446C42.4234 18.8971 40.9895 19.3199 39.5256 19.6075C38.5703 19.8069 35.1095 20.3192 31.9678 20.725C25.4257 21.5722 23.7756 21.9075 22.1543 22.7179C21.2522 23.1532 20.4414 23.7565 19.7655 24.4956V15.7788C19.7648 15.1055 19.497 14.4601 19.0209 13.9839C18.5449 13.5078 17.8993 13.2398 17.226 13.239L12.6275 13.2378Z" fill="url(#paint0_linear)"/>
<path d="M96.744 26.216C95.656 26.216 94.68 26.024 93.816 25.64C92.952 25.24 92.264 24.704 91.752 24.032C91.256 23.36 90.984 22.616 90.936 21.8H94.32C94.384 22.312 94.632 22.736 95.064 23.072C95.512 23.408 96.064 23.576 96.72 23.576C97.36 23.576 97.856 23.448 98.208 23.192C98.576 22.936 98.76 22.608 98.76 22.208C98.76 21.776 98.536 21.456 98.088 21.248C97.656 21.024 96.96 20.784 96 20.528C95.008 20.288 94.192 20.04 93.552 19.784C92.928 19.528 92.384 19.136 91.92 18.608C91.472 18.08 91.248 17.368 91.248 16.472C91.248 15.736 91.456 15.064 91.872 14.456C92.304 13.848 92.912 13.368 93.696 13.016C94.496 12.664 95.432 12.488 96.504 12.488C98.088 12.488 99.352 12.888 100.296 13.688C101.24 14.472 101.76 15.536 101.856 16.88H98.64C98.592 16.352 98.368 15.936 97.968 15.632C97.584 15.312 97.064 15.152 96.408 15.152C95.8 15.152 95.328 15.264 94.992 15.488C94.672 15.712 94.512 16.024 94.512 16.424C94.512 16.872 94.736 17.216 95.184 17.456C95.632 17.68 96.328 17.912 97.272 18.152C98.232 18.392 99.024 18.64 99.648 18.896C100.272 19.152 100.808 19.552 101.256 20.096C101.72 20.624 101.96 21.328 101.976 22.208C101.976 22.976 101.76 23.664 101.328 24.272C100.912 24.88 100.304 25.36 99.504 25.712C98.72 26.048 97.8 26.216 96.744 26.216ZM108.646 15.464V21.896C108.646 22.344 108.75 22.672 108.958 22.88C109.182 23.072 109.55 23.168 110.062 23.168H111.622V26H109.51C106.678 26 105.262 24.624 105.262 21.872V15.464H103.678V12.704H105.262V9.416H108.646V12.704H111.622V15.464H108.646ZM126.591 12.704V26H123.207V24.32C122.775 24.896 122.207 25.352 121.503 25.688C120.815 26.008 120.063 26.168 119.247 26.168C118.207 26.168 117.287 25.952 116.487 25.52C115.687 25.072 115.055 24.424 114.591 23.576C114.143 22.712 113.919 21.688 113.919 20.504V12.704H117.279V20.024C117.279 21.08 117.543 21.896 118.071 22.472C118.599 23.032 119.319 23.312 120.231 23.312C121.159 23.312 121.887 23.032 122.415 22.472C122.943 21.896 123.207 21.08 123.207 20.024V12.704H126.591ZM129.042 19.304C129.042 17.96 129.306 16.768 129.834 15.728C130.378 14.688 131.114 13.888 132.042 13.328C132.97 12.768 134.002 12.488 135.138 12.488C136.002 12.488 136.826 12.68 137.61 13.064C138.394 13.432 139.018 13.928 139.482 14.552V8.24H142.89V26H139.482V24.032C139.066 24.688 138.482 25.216 137.73 25.616C136.978 26.016 136.106 26.216 135.114 26.216C133.994 26.216 132.97 25.928 132.042 25.352C131.114 24.776 130.378 23.968 129.834 22.928C129.306 21.872 129.042 20.664 129.042 19.304ZM139.506 19.352C139.506 18.536 139.346 17.84 139.026 17.264C138.706 16.672 138.274 16.224 137.73 15.92C137.186 15.6 136.602 15.44 135.978 15.44C135.354 15.44 134.778 15.592 134.25 15.896C133.722 16.2 133.29 16.648 132.954 17.24C132.634 17.816 132.474 18.504 132.474 19.304C132.474 20.104 132.634 20.808 132.954 21.416C133.29 22.008 133.722 22.464 134.25 22.784C134.794 23.104 135.37 23.264 135.978 23.264C136.602 23.264 137.186 23.112 137.73 22.808C138.274 22.488 138.706 22.04 139.026 21.464C139.346 20.872 139.506 20.168 139.506 19.352ZM147.876 11.12C147.284 11.12 146.788 10.936 146.388 10.568C146.004 10.184 145.812 9.712 145.812 9.152C145.812 8.592 146.004 8.128 146.388 7.76C146.788 7.376 147.284 7.184 147.876 7.184C148.468 7.184 148.956 7.376 149.34 7.76C149.74 8.128 149.94 8.592 149.94 9.152C149.94 9.712 149.74 10.184 149.34 10.568C148.956 10.936 148.468 11.12 147.876 11.12ZM149.532 12.704V26H146.172V12.704H149.532ZM158.755 26.216C157.475 26.216 156.323 25.936 155.299 25.376C154.275 24.8 153.467 23.992 152.875 22.952C152.299 21.912 152.011 20.712 152.011 19.352C152.011 17.992 152.307 16.792 152.899 15.752C153.507 14.712 154.331 13.912 155.371 13.352C156.411 12.776 157.571 12.488 158.851 12.488C160.131 12.488 161.291 12.776 162.331 13.352C163.371 13.912 164.187 14.712 164.779 15.752C165.387 16.792 165.691 17.992 165.691 19.352C165.691 20.712 165.379 21.912 164.755 22.952C164.147 23.992 163.315 24.8 162.259 25.376C161.219 25.936 160.051 26.216 158.755 26.216ZM158.755 23.288C159.363 23.288 159.931 23.144 160.459 22.856C161.003 22.552 161.435 22.104 161.755 21.512C162.075 20.92 162.235 20.2 162.235 19.352C162.235 18.088 161.899 17.12 161.227 16.448C160.571 15.76 159.763 15.416 158.803 15.416C157.843 15.416 157.035 15.76 156.379 16.448C155.739 17.12 155.419 18.088 155.419 19.352C155.419 20.616 155.731 21.592 156.355 22.28C156.995 22.952 157.795 23.288 158.755 23.288ZM99.528 62L95.016 56.336V62H91.656V44.24H95.016V54.344L99.48 48.704H103.848L97.992 55.376L103.896 62H99.528ZM104.808 55.304C104.808 53.96 105.072 52.768 105.6 51.728C106.144 50.688 106.872 49.888 107.784 49.328C108.712 48.768 109.744 48.488 110.88 48.488C111.872 48.488 112.736 48.688 113.472 49.088C114.224 49.488 114.824 49.992 115.272 50.6V48.704H118.656V62H115.272V60.056C114.84 60.68 114.24 61.2 113.472 61.616C112.72 62.016 111.848 62.216 110.856 62.216C109.736 62.216 108.712 61.928 107.784 61.352C106.872 60.776 106.144 59.968 105.6 58.928C105.072 57.872 104.808 56.664 104.808 55.304ZM115.272 55.352C115.272 54.536 115.112 53.84 114.792 53.264C114.472 52.672 114.04 52.224 113.496 51.92C112.952 51.6 112.368 51.44 111.744 51.44C111.12 51.44 110.544 51.592 110.016 51.896C109.488 52.2 109.056 52.648 108.72 53.24C108.4 53.816 108.24 54.504 108.24 55.304C108.24 56.104 108.4 56.808 108.72 57.416C109.056 58.008 109.488 58.464 110.016 58.784C110.56 59.104 111.136 59.264 111.744 59.264C112.368 59.264 112.952 59.112 113.496 58.808C114.04 58.488 114.472 58.04 114.792 57.464C115.112 56.872 115.272 56.168 115.272 55.352ZM125.297 50.768C125.729 50.064 126.289 49.512 126.977 49.112C127.681 48.712 128.481 48.512 129.377 48.512V52.04H128.489C127.433 52.04 126.633 52.288 126.089 52.784C125.561 53.28 125.297 54.144 125.297 55.376V62H121.937V48.704H125.297V50.768ZM136.728 62.216C135.64 62.216 134.664 62.024 133.8 61.64C132.936 61.24 132.248 60.704 131.736 60.032C131.24 59.36 130.968 58.616 130.92 57.8H134.304C134.368 58.312 134.616 58.736 135.048 59.072C135.496 59.408 136.048 59.576 136.704 59.576C137.344 59.576 137.84 59.448 138.192 59.192C138.56 58.936 138.744 58.608 138.744 58.208C138.744 57.776 138.52 57.456 138.072 57.248C137.64 57.024 136.944 56.784 135.984 56.528C134.992 56.288 134.176 56.04 133.536 55.784C132.912 55.528 132.368 55.136 131.904 54.608C131.456 54.08 131.232 53.368 131.232 52.472C131.232 51.736 131.44 51.064 131.856 50.456C132.288 49.848 132.896 49.368 133.68 49.016C134.48 48.664 135.416 48.488 136.488 48.488C138.072 48.488 139.336 48.888 140.28 49.688C141.224 50.472 141.744 51.536 141.84 52.88H138.624C138.576 52.352 138.352 51.936 137.952 51.632C137.568 51.312 137.048 51.152 136.392 51.152C135.784 51.152 135.312 51.264 134.976 51.488C134.656 51.712 134.496 52.024 134.496 52.424C134.496 52.872 134.72 53.216 135.168 53.456C135.616 53.68 136.312 53.912 137.256 54.152C138.216 54.392 139.008 54.64 139.632 54.896C140.256 55.152 140.792 55.552 141.24 56.096C141.704 56.624 141.944 57.328 141.96 58.208C141.96 58.976 141.744 59.664 141.312 60.272C140.896 60.88 140.288 61.36 139.488 61.712C138.704 62.048 137.784 62.216 136.728 62.216ZM143.854 55.304C143.854 53.96 144.118 52.768 144.646 51.728C145.191 50.688 145.919 49.888 146.831 49.328C147.759 48.768 148.791 48.488 149.927 48.488C150.919 48.488 151.783 48.688 152.519 49.088C153.271 49.488 153.871 49.992 154.319 50.6V48.704H157.703V62H154.319V60.056C153.887 60.68 153.287 61.2 152.519 61.616C151.767 62.016 150.895 62.216 149.903 62.216C148.783 62.216 147.759 61.928 146.831 61.352C145.919 60.776 145.191 59.968 144.646 58.928C144.118 57.872 143.854 56.664 143.854 55.304ZM154.319 55.352C154.319 54.536 154.159 53.84 153.839 53.264C153.519 52.672 153.087 52.224 152.543 51.92C151.999 51.6 151.415 51.44 150.791 51.44C150.167 51.44 149.591 51.592 149.062 51.896C148.535 52.2 148.103 52.648 147.767 53.24C147.447 53.816 147.287 54.504 147.287 55.304C147.287 56.104 147.447 56.808 147.767 57.416C148.103 58.008 148.535 58.464 149.062 58.784C149.607 59.104 150.183 59.264 150.791 59.264C151.415 59.264 151.999 59.112 152.543 58.808C153.087 58.488 153.519 58.04 153.839 57.464C154.159 56.872 154.319 56.168 154.319 55.352Z" fill="black"/>
<defs>
<linearGradient id="paint0_linear" x1="13.082" y1="58.032" x2="53.01" y2="6.324" gradientUnits="userSpaceOnUse">
<stop stop-color="#D81159"/>
<stop offset="1" stop-color="#FFBC42"/>
</linearGradient>
</defs>
</svg>
