<svg width="745" height="755" viewBox="0 0 745 755" fill="none" xmlns="http://www.w3.org/2000/svg">
<path d="M223.185 173.892C223.053 173.892 219.159 173.087 211.619 171.498C211.437 171.46 211.324 171.283 211.362 171.102C211.4 170.921 211.577 170.807 211.758 170.845C216.197 171.781 222.913 173.186 223.223 173.227C223.408 173.227 223.54 173.374 223.54 173.559C223.537 173.741 223.37 173.892 223.185 173.892Z" fill="#1F0F0A"/>
<path d="M170.512 137.681C167.411 135.311 167.959 130.754 167.959 130.754C165.224 134.582 166.134 137.319 169.783 138.595C164.128 142.789 162.122 148.806 163.399 157.738C164.676 166.67 167.777 176.334 167.777 176.334L193.683 180.528L214.482 155.733C217.036 150.811 216.854 145.16 216.854 145.16C217.583 147.712 220.685 146.069 220.503 139.69C220.322 133.31 211.928 133.125 203.539 132.396C195.145 131.668 190.586 127.474 182.925 128.75C175.257 130.022 170.879 132.574 170.512 137.681Z" fill="#1F0F0A"/>
<path d="M215.694 193.77C213.141 200.455 207.546 200.455 203.776 201.063L203.338 210.588L176.654 205.925C176.654 205.925 177.02 193.649 173.613 181.86C170.085 186.114 160.841 182.468 161.087 174.08C161.329 165.691 169.722 164.476 173.371 170.433C177.02 171.528 177.508 168.123 177.508 168.123C180.428 169.825 182.736 168.123 182.127 163.019C181.519 157.915 185.289 147.096 181.032 147.217C182.615 146.367 184.439 145.635 185.289 144.665C186.139 143.691 186.385 138.953 186.385 138.953C190.396 143.695 204.264 145.393 205.48 143.936C206.696 142.479 206.454 140.531 206.454 140.531C209.129 142.475 213.753 146.85 214.848 151.954C215.944 157.058 215.214 168.972 215.214 173.347C215.207 177.726 217.398 188.545 215.694 193.77Z" fill="#FF8F6E"/>
<path d="M203.493 652.115C198.159 665.66 199.715 676.989 199.715 676.989H283.489C280.376 667.884 261.489 655.894 244.822 653.448C228.156 651.006 224.601 642.346 224.601 642.346L203.493 652.115Z" fill="#E68164"/>
<path d="M202.53 654.755C203.455 655.747 204.679 657.171 206.243 659.194H234.491C234.491 659.194 233.513 654.573 236.697 651.489C238.979 652.297 241.664 652.984 244.822 653.448C261.489 655.891 280.376 667.884 283.489 676.989H199.715C199.715 676.986 198.359 667.099 202.53 654.755Z" fill="#000724"/>
<path d="M178.966 365.367C172.182 412.819 196.528 659.221 196.528 659.221L236.21 651.425L235.194 643.97L229.43 639.904L231.806 636.514L230.45 375.756L178.966 365.367Z" fill="#000724"/>
<path d="M156.162 652.115C150.828 665.66 152.384 676.989 152.384 676.989H236.158C233.045 667.884 214.157 655.894 197.491 653.448C180.825 651.006 177.27 642.346 177.27 642.346L156.162 652.115Z" fill="#FF8F6E"/>
<path d="M155.199 654.755C156.124 655.747 157.348 657.171 158.912 659.194H187.16C187.16 659.194 186.182 654.573 189.366 651.489C191.648 652.297 194.333 652.984 197.491 653.448C214.158 655.891 233.045 667.884 236.158 676.989H152.384C152.384 676.986 151.028 667.099 155.199 654.755Z" fill="#000F4E"/>
<path d="M156.581 672.598H216.745C216.915 672.598 217.058 672.47 217.077 672.304C217.096 672.134 216.986 671.979 216.824 671.941C216.601 671.889 194.469 666.653 189.845 660.734C189.732 660.59 189.524 660.564 189.377 660.677C189.233 660.79 189.207 660.998 189.32 661.145C193.158 666.056 207.943 670.337 214.047 671.934H156.581C156.395 671.934 156.248 672.081 156.248 672.266C156.244 672.451 156.395 672.598 156.581 672.598Z" fill="#2F4394"/>
<path d="M195.497 659.525C195.504 659.525 195.512 659.525 195.519 659.525C195.705 659.514 195.84 659.356 195.829 659.171C195.825 659.122 195.561 654.305 199.21 652.753C199.38 652.681 199.459 652.485 199.388 652.315C199.316 652.145 199.119 652.066 198.949 652.138C194.862 653.874 195.161 659.159 195.164 659.212C195.176 659.39 195.319 659.525 195.497 659.525Z" fill="#2F4394"/>
<path d="M202.497 661.605C202.504 661.605 202.512 661.605 202.519 661.605C202.705 661.594 202.841 661.436 202.829 661.251C202.825 661.202 202.561 656.385 206.21 654.833C206.38 654.761 206.459 654.565 206.388 654.395C206.316 654.225 206.119 654.146 205.949 654.218C201.862 655.954 202.161 661.239 202.164 661.292C202.176 661.473 202.319 661.605 202.497 661.605Z" fill="#2F4394"/>
<path d="M208.246 663.689C208.253 663.689 208.261 663.689 208.268 663.689C208.454 663.678 208.59 663.52 208.578 663.335C208.574 663.285 208.31 658.469 211.959 656.917C212.129 656.845 212.208 656.649 212.137 656.479C212.065 656.309 211.868 656.23 211.698 656.302C207.611 658.038 207.91 663.323 207.913 663.376C207.925 663.554 208.072 663.689 208.246 663.689Z" fill="#2F4394"/>
<path d="M150.401 369.311C143.616 416.763 148.365 659.22 148.365 659.22L188.047 651.425L187.031 643.969L181.266 639.903L183.639 636.514L206.024 409.987C206.024 409.987 211.452 412.022 211.452 407.952C211.452 403.887 210.772 368.636 210.772 368.636L150.401 369.311Z" fill="#000F4E"/>
<path d="M152.267 221.656L168.298 216.043C171.063 215.077 172.869 212.411 172.744 209.486C172.601 206.126 175.853 203.65 179.057 204.684L180.303 205.088C186.283 207.021 196.176 207.398 202.288 205.926L202.734 205.82C205.424 205.171 208.109 206.911 208.615 209.633C208.887 211.09 209.749 212.37 210.995 213.174C221.368 218.787 230.132 226.972 236.418 236.953C236.807 237.568 237.185 238.168 237.555 238.746L257.745 270.177L266.226 225.775H278.265L284.709 248.991L278.945 302.883L273.18 314.144C268.723 322.849 256.975 324.499 250.289 317.356L229.766 295.427L232.478 378.806C203.648 386.941 176.854 378.126 176.854 378.126L178.173 389.965L151.062 390.965L131.925 329.218C128.691 317.825 127.449 305.967 128.257 294.152C129.473 276.318 132.227 250.124 138.29 234.971C140.794 228.716 145.913 223.884 152.267 221.656Z" fill="#D81159"/>
<path d="M350.611 341.218C350.611 341.218 349.723 331.667 347.721 326.559C345.723 321.452 338.833 319.896 326.167 319.896H292.075C289.495 319.896 288.215 323.034 290.069 324.83C291.49 326.205 294.183 327.39 298.61 327.892C308.386 329.002 321.721 326.782 325.721 331.89C329.722 336.997 332.611 346.767 332.611 346.767L353.501 343.656L350.611 341.218Z" fill="#FF8F6E"/>
<path d="M420.167 198.096L401.944 180.663L401.275 198.651L418.387 214.415L422.388 211.086L420.167 198.096Z" fill="#FF8F6E"/>
<path d="M519.049 500.663L533.717 645.007C519.495 657.442 513.719 670.322 513.719 670.322C513.719 670.322 501.163 674.097 501.499 676.762C501.499 676.762 526.902 676.762 528.833 676.762C535.5 673.097 549.798 658.348 548.997 661.938C548.664 663.437 548.332 677.095 548.332 677.095H554.497C556.329 671.764 562.664 656.608 560.998 649.114C559.332 641.621 556.998 643.286 556.167 639.786C555.336 636.287 560.832 585.045 563.057 548.628C565.278 512.21 560.836 497.106 560.836 497.106L519.049 500.663Z" fill="#E68164"/>
<path d="M501.496 676.763C501.496 676.763 526.899 676.763 528.83 676.763C535.497 673.097 549.795 658.348 548.994 661.938C548.661 663.437 548.329 677.095 548.329 677.095H554.494C556.326 671.765 562.661 656.608 560.995 649.115C559.945 644.392 558.63 643.305 557.591 642.274C541.424 651.512 524.316 675.317 513.716 670.323C513.716 670.323 501.163 674.098 501.496 676.763Z" fill="#000724"/>
<path d="M559.714 500.663L574.382 645.007C560.16 657.442 554.384 670.322 554.384 670.322C554.384 670.322 541.828 674.097 542.164 676.762C542.164 676.762 567.567 676.762 569.498 676.762C576.165 673.097 590.463 658.348 589.662 661.938C589.33 663.437 588.997 677.095 588.997 677.095H595.162C596.994 671.764 603.329 656.608 601.663 649.114C599.997 641.621 597.663 643.286 596.832 639.786C595.997 636.287 601.497 585.045 603.722 548.628C605.943 512.21 601.501 497.106 601.501 497.106L559.714 500.663Z" fill="#FF8F6E"/>
<path d="M542.16 676.763C542.16 676.763 567.563 676.763 569.494 676.763C576.161 673.097 590.459 658.348 589.658 661.938C589.325 663.437 588.993 677.095 588.993 677.095H595.158C596.99 671.765 603.325 656.608 601.659 649.115C600.609 644.392 599.294 643.305 598.255 642.274C582.088 651.512 564.98 675.317 554.38 670.323C554.384 670.323 541.827 674.098 542.16 676.763Z" fill="#000F4E"/>
<path d="M568.825 275.042H599.491C613.49 255.057 607.159 227.077 594.826 208.089C582.492 189.101 587.161 187.768 588.827 168.115C590.493 148.463 580.826 146.462 565.161 139.135C546.16 129.475 527.496 138.47 524.496 153.457C521.497 168.448 525.161 173.11 517.497 194.095C509.828 215.08 509.496 238.398 509.496 238.398C509.496 238.398 538.163 267.047 539.161 268.043C540.162 269.048 568.825 275.042 568.825 275.042Z" fill="#1F0F0A"/>
<path d="M513.161 311.516C470.161 378.304 468.163 506.88 468.163 506.88C468.163 506.88 611.16 509.213 613.491 506.88C620.158 433.596 581.492 310.35 581.492 310.35L528.826 302.354L513.161 311.516Z" fill="#000F4E"/>
<path d="M581.657 208.089C589.934 213.974 589.998 219.233 589.934 241.955C589.824 282.37 588.491 348.327 588.491 348.327H565.66L563.994 311.52H513.164C511.166 293.034 501.831 275.046 501.163 271.049C500.494 267.051 504.495 255.726 505.163 254.061L466.708 265.805C460.849 267.595 454.481 265.964 450.205 261.573L407.5 217.753L420.166 198.101L460.831 231.079C479.495 226.081 509.496 208.097 517.274 211.094L521.497 217.425L545.495 219.422L565.83 218.089L581.657 208.089Z" fill="#D81159"/>
<path d="M517.274 211.086C516.386 217.749 519.941 229.961 539.497 231.294C559.053 232.627 568.247 223.159 581.661 208.089C577.411 206.258 569.271 209.282 561.939 212.196C554.607 215.111 559.132 192.347 562.384 187.436C567.801 190.184 572.244 185.02 575.077 179.108C575.077 179.108 570.495 178.776 567.409 177.028L564.825 179.943C564.825 179.943 565.66 177.361 565.323 175.779C553.742 171.781 545.159 155.292 550.908 143.635C540.826 147.021 535.27 152.574 532.826 157.682C530.382 162.789 529.713 167.342 528.716 171.562C527.715 175.783 525.826 185.107 527.605 192.547C529.384 199.988 534.714 202.763 538.605 202.43C538.496 208.761 536.58 216.511 531.938 216.421C526.272 216.304 517.274 211.086 517.274 211.086Z" fill="#FF8F6E"/>
<path d="M492.478 274.434C498.371 277.93 495.058 289.527 489.347 297.258C483.639 304.989 468.903 312.35 468.903 312.35L444.591 275.355C443.854 266.337 454.537 254.004 457.113 254.744C456.562 250.693 459.138 246.646 462.085 246.646C465.031 246.646 465.768 252.169 473.689 256.952C481.61 261.735 494.503 264.31 492.478 274.434Z" fill="#1F0F0A"/>
<path d="M557.799 515.393H461.496L471.718 373.642H579.271L557.799 515.393Z" fill="#F0A355"/>
<path d="M471.276 327.45L479.276 334.555L501.805 341.429C505.995 342.709 509.447 345.702 511.302 349.67L548.635 429.541C552.737 438.314 549.961 448.767 542.043 454.351C536.449 458.299 529.219 459.111 522.884 456.51L505.504 449.364L504.616 467.129L411.063 464.241L412.842 408.945L390.634 428.582C386.248 432.048 380.578 433.452 375.078 432.437C369.182 431.346 364.123 427.59 361.377 422.263L323.168 343.826L353.278 340.772L378.833 383.63L414.134 340.104C415.883 337.948 418.312 336.457 421.028 335.872L437.501 332.331L449.279 327.888L471.276 327.45Z" fill="#FFBC42"/>
<path d="M329 355.986L360.002 351.988L353.278 340.772L323.168 343.826L329 355.986Z" fill="white"/>
<path d="M279.417 537.525H231.503V676.985H279.417V537.525Z" fill="#2A345E"/>
<path d="M279.421 676.986H325.057V537.527H279.421V676.986Z" fill="#3E4D8C"/>
<path d="M547.407 503.2L567.069 384.023C567.571 377.787 573.034 373.14 579.27 373.638C585.511 374.14 590.161 379.599 589.662 385.831L570 505.008C569.498 511.244 564.036 515.892 557.799 515.393C551.559 514.895 546.905 509.436 547.407 503.2Z" fill="#FFD35A"/>
<path d="M494.828 539.749H425.054C418.795 539.749 413.722 534.679 413.722 528.424C413.722 522.168 418.795 517.099 425.054 517.099H494.828C501.087 517.099 506.161 522.168 506.161 528.424C506.161 534.675 501.087 539.749 494.828 539.749Z" fill="#F0A355"/>
<path d="M324.834 652.115C330.168 665.66 328.611 676.989 328.611 676.989H244.838C247.951 667.884 266.838 655.894 283.504 653.448C300.171 651.006 303.725 642.346 303.725 642.346L324.834 652.115Z" fill="#E68164"/>
<path d="M325.797 654.755C324.872 655.747 323.648 657.171 322.084 659.194H293.836C293.836 659.194 294.814 654.573 291.63 651.489C289.348 652.297 286.662 652.984 283.504 653.448C266.838 655.891 247.951 667.884 244.838 676.989H328.611C328.611 676.986 329.967 667.099 325.797 654.755Z" fill="#000724"/>
<path d="M324.419 672.598H264.254C264.084 672.598 263.941 672.47 263.922 672.304C263.903 672.134 264.013 671.979 264.175 671.941C264.398 671.889 286.53 666.653 291.154 660.734C291.267 660.59 291.475 660.564 291.622 660.677C291.766 660.79 291.792 660.998 291.679 661.145C287.841 666.056 273.056 670.337 266.952 671.934H324.415C324.6 671.934 324.747 672.081 324.747 672.266C324.751 672.451 324.604 672.598 324.419 672.598Z" fill="#152B8A"/>
<path d="M285.502 659.525C285.495 659.525 285.487 659.525 285.48 659.525C285.294 659.514 285.159 659.356 285.17 659.171C285.174 659.122 285.438 654.305 281.789 652.753C281.619 652.681 281.54 652.485 281.611 652.315C281.683 652.145 281.88 652.066 282.05 652.138C286.137 653.874 285.838 659.159 285.835 659.212C285.823 659.39 285.676 659.525 285.502 659.525Z" fill="#152B8A"/>
<path d="M278.503 661.605C278.496 661.605 278.488 661.605 278.481 661.605C278.296 661.594 278.16 661.436 278.171 661.251C278.175 661.202 278.439 656.385 274.79 654.833C274.62 654.761 274.541 654.565 274.612 654.395C274.684 654.225 274.881 654.146 275.051 654.218C279.138 655.954 278.839 661.239 278.836 661.292C278.824 661.473 278.677 661.605 278.503 661.605Z" fill="#152B8A"/>
<path d="M272.753 663.689C272.746 663.689 272.738 663.689 272.731 663.689C272.545 663.678 272.409 663.52 272.421 663.335C272.425 663.285 272.689 658.469 269.04 656.917C268.87 656.845 268.791 656.649 268.862 656.479C268.934 656.309 269.131 656.23 269.301 656.302C273.388 658.038 273.089 663.323 273.086 663.376C273.074 663.554 272.927 663.689 272.753 663.689Z" fill="#152B8A"/>
<path d="M435.941 468.243C436.828 494.445 427.498 513.989 414.609 517.099C401.72 520.21 340.389 517.099 340.389 517.099L330.167 655.226L286.167 645.457L293.956 493.29C294.576 481.165 304.439 471.561 316.583 471.256L435.941 468.243Z" fill="#000724"/>
<path d="M340.001 516.876C339.986 516.876 339.967 516.876 339.952 516.872L332.117 515.706C331.936 515.679 331.811 515.509 331.838 515.328C331.864 515.147 332.038 515.026 332.215 515.049L339.528 516.136L337.179 508.31C337.126 508.133 337.224 507.948 337.402 507.895C337.579 507.842 337.764 507.94 337.817 508.118L340.318 516.445C340.352 516.555 340.326 516.672 340.25 516.759C340.19 516.834 340.099 516.876 340.001 516.876Z" fill="#152B8A"/>
<path d="M392.168 652.115C397.501 665.66 395.945 676.989 395.945 676.989H312.168C315.281 667.884 334.168 655.894 350.834 653.448C367.501 651.006 371.055 642.346 371.055 642.346L392.168 652.115Z" fill="#FF8F6E"/>
<path d="M393.131 654.755C392.205 655.747 390.982 657.171 389.418 659.194H361.166C361.166 659.194 362.144 654.573 358.96 651.489C356.678 652.297 353.992 652.984 350.834 653.448C334.168 655.891 315.281 667.884 312.168 676.989H395.941C395.945 676.986 397.301 667.099 393.131 654.755Z" fill="#000F4E"/>
<path d="M391.749 672.598H331.585C331.415 672.598 331.271 672.47 331.252 672.304C331.233 672.134 331.343 671.979 331.505 671.941C331.728 671.889 353.86 666.653 358.484 660.734C358.597 660.59 358.805 660.564 358.952 660.677C359.096 660.79 359.122 660.998 359.009 661.145C355.171 666.056 340.386 670.337 334.282 671.934H391.745C391.93 671.934 392.077 672.081 392.077 672.266C392.085 672.451 391.934 672.598 391.749 672.598Z" fill="#2F4394"/>
<path d="M352.832 659.525C352.825 659.525 352.817 659.525 352.81 659.525C352.625 659.514 352.489 659.356 352.5 659.171C352.504 659.122 352.768 654.305 349.119 652.753C348.949 652.681 348.87 652.485 348.941 652.315C349.013 652.145 349.21 652.066 349.38 652.138C353.467 653.874 353.168 659.159 353.165 659.212C353.153 659.39 353.01 659.525 352.832 659.525Z" fill="#2F4394"/>
<path d="M345.833 661.605C345.826 661.605 345.818 661.605 345.811 661.605C345.626 661.594 345.49 661.436 345.501 661.251C345.505 661.202 345.769 656.385 342.12 654.833C341.95 654.761 341.871 654.565 341.942 654.395C342.014 654.225 342.211 654.146 342.381 654.218C346.468 655.954 346.169 661.239 346.166 661.292C346.154 661.473 346.011 661.605 345.833 661.605Z" fill="#2F4394"/>
<path d="M340.083 663.689C340.076 663.689 340.068 663.689 340.061 663.689C339.875 663.678 339.74 663.52 339.751 663.335C339.755 663.285 340.019 658.469 336.37 656.917C336.2 656.845 336.121 656.649 336.192 656.479C336.264 656.309 336.461 656.23 336.631 656.302C340.718 658.038 340.419 663.323 340.416 663.376C340.404 663.554 340.257 663.689 340.083 663.689Z" fill="#2F4394"/>
<path d="M503.275 468.243C504.162 494.445 494.832 513.989 481.943 517.099C469.054 520.21 407.723 517.099 407.723 517.099L397.501 655.226L353.501 645.457L361.29 493.29C361.91 481.165 371.773 471.561 383.917 471.256L503.275 468.243Z" fill="#000F4E"/>
<path d="M362.14 436.265H263.087C261.478 436.265 260.171 434.959 260.171 433.351V369.447C260.171 367.839 261.478 366.533 263.087 366.533H362.14C363.75 366.533 365.057 367.839 365.057 369.447V433.347C365.057 434.959 363.75 436.265 362.14 436.265Z" fill="#4B5EAB"/>
<path d="M356.806 436.265H257.753C256.144 436.265 254.837 434.959 254.837 433.351V369.447C254.837 367.839 256.144 366.533 257.753 366.533H356.806C358.416 366.533 359.723 367.839 359.723 369.447V433.347C359.723 434.959 358.416 436.265 356.806 436.265Z" fill="#3E4D8C"/>
<path d="M318.031 430.433H299.196V458.745H318.031V430.433Z" fill="#4B5EAB"/>
<path d="M316.697 430.433H297.862V458.745H316.697V430.433Z" fill="#3B4A87"/>
<path d="M336.669 462.746H295.003V457.748H331.667C334.429 457.748 336.669 459.987 336.669 462.746Z" fill="#3E4D8C"/>
<path d="M608.462 471.904H206.088C203.557 471.904 201.506 469.854 201.506 467.325C201.506 464.796 203.557 462.746 206.088 462.746H608.462C610.993 462.746 613.044 464.796 613.044 467.325C613.048 469.854 610.993 471.904 608.462 471.904Z" fill="#3E4D8C"/>
<path d="M266.838 427.269C266.838 428.19 266.09 428.934 265.172 428.934C264.25 428.934 263.506 428.187 263.506 427.269C263.506 426.348 264.254 425.604 265.172 425.604C266.09 425.604 266.838 426.352 266.838 427.269Z" fill="#4B5EAB"/>
<path d="M274.17 427.269C274.17 428.19 273.422 428.934 272.504 428.934C271.586 428.934 270.838 428.187 270.838 427.269C270.838 426.348 271.586 425.604 272.504 425.604C273.422 425.604 274.17 426.352 274.17 427.269Z" fill="#4B5EAB"/>
<path d="M281.502 427.269C281.502 428.19 280.754 428.934 279.836 428.934C278.918 428.934 278.17 428.187 278.17 427.269C278.17 426.348 278.918 425.604 279.836 425.604C280.754 425.604 281.502 426.352 281.502 427.269Z" fill="#4B5EAB"/>
<path d="M278.171 419.942C278.171 420.863 277.423 421.607 276.505 421.607C275.583 421.607 274.839 420.859 274.839 419.942C274.839 419.021 275.587 418.277 276.505 418.277C277.423 418.277 278.171 419.021 278.171 419.942Z" fill="#4B5EAB"/>
<path d="M270.839 419.942C270.839 420.863 270.091 421.607 269.173 421.607C268.251 421.607 267.507 420.859 267.507 419.942C267.507 419.021 268.255 418.277 269.173 418.277C270.091 418.277 270.839 419.021 270.839 419.942Z" fill="#4B5EAB"/>
<path d="M407.33 516.876C407.315 516.876 407.296 516.876 407.281 516.872L399.446 515.706C399.265 515.679 399.14 515.509 399.167 515.328C399.193 515.147 399.367 515.026 399.544 515.049L406.858 516.136L404.508 508.31C404.455 508.133 404.553 507.948 404.731 507.895C404.908 507.842 405.094 507.94 405.146 508.118L407.647 516.445C407.681 516.555 407.655 516.672 407.579 516.759C407.519 516.834 407.428 516.876 407.33 516.876Z" fill="#2F4394"/>
<path d="M555.495 539.749H485.721C479.462 539.749 474.389 534.679 474.389 528.424C474.389 522.168 479.462 517.099 485.721 517.099H555.495C561.754 517.099 566.828 522.168 566.828 528.424C566.828 534.675 561.754 539.749 555.495 539.749Z" fill="#FFD35A"/>
<path d="M496.846 627.93C465.239 627.93 435.48 639.655 414.704 659.821L422.795 667.246C441.43 649.021 468.284 638.409 496.846 638.409C524.372 638.409 550.595 648.417 569.162 665.608L576.634 657.624C555.971 638.839 527.1 627.93 496.846 627.93Z" fill="#4B5EAB"/>
<path d="M499.388 545.291H487.953V664.287H499.388V545.291Z" fill="#4B5EAB"/>
<path d="M503.377 658.096H483.961V676.986H503.377V658.096Z" fill="#000F4E"/>
<path d="M493.669 667.145C486.102 667.145 479.968 661.014 479.968 653.453V649.285H507.366V653.453C507.37 661.014 501.235 667.145 493.669 667.145Z" fill="#3E4D8C"/>
<path d="M426.961 672.948C431.924 667.989 431.924 659.948 426.961 654.989C421.999 650.03 413.953 650.03 408.99 654.989C404.028 659.948 404.028 667.989 408.99 672.948C413.953 677.908 421.999 677.908 426.961 672.948Z" fill="#000F4E"/>
<path d="M417.983 671.074C414.062 671.074 410.874 667.888 410.874 663.97C410.874 660.051 414.062 656.865 417.983 656.865C418.248 656.865 418.459 657.077 418.459 657.341C418.459 657.605 418.248 657.817 417.983 657.817C414.591 657.817 411.83 660.576 411.83 663.966C411.83 667.356 414.591 670.115 417.983 670.115C421.375 670.115 424.137 667.356 424.137 663.966C424.137 663.702 424.348 663.49 424.613 663.49C424.877 663.49 425.089 663.702 425.089 663.966C425.092 667.888 421.904 671.074 417.983 671.074Z" fill="#4B5EAB"/>
<path d="M583.782 666.948C585.395 660.122 581.165 653.282 574.335 651.67C567.505 650.059 560.661 654.285 559.048 661.111C557.435 667.937 561.665 674.776 568.495 676.388C575.325 678 582.169 673.773 583.782 666.948Z" fill="#000724"/>
<path d="M571.421 671.074C567.5 671.074 564.312 667.888 564.312 663.97C564.312 660.051 567.5 656.865 571.421 656.865C571.685 656.865 571.897 657.077 571.897 657.341C571.897 657.605 571.685 657.817 571.421 657.817C568.029 657.817 565.267 660.576 565.267 663.966C565.267 667.356 568.029 670.115 571.421 670.115C574.813 670.115 577.574 667.356 577.574 663.966C577.574 663.702 577.786 663.49 578.05 663.49C578.315 663.49 578.526 663.702 578.526 663.966C578.53 667.888 575.342 671.074 571.421 671.074Z" fill="#4B5EAB"/>
<path d="M513.127 557.197H474.211C464.386 557.197 456.423 549.24 456.423 539.421H530.919C530.919 549.236 522.952 557.197 513.127 557.197Z" fill="#3E4D8C"/>
<path d="M262.173 548.632H237.506V598.375H262.173V548.632Z" fill="#3E4D8C"/>
<path d="M275.326 628.108C277.131 620.468 272.398 612.813 264.754 611.009C257.109 609.206 249.449 613.936 247.644 621.575C245.839 629.214 250.573 636.87 258.217 638.673C265.861 640.477 273.521 635.747 275.326 628.108Z" fill="#3E4D8C"/>
<path d="M243.505 554.849C243.505 555.585 242.908 556.182 242.171 556.182C241.435 556.182 240.838 555.585 240.838 554.849C240.838 554.113 241.435 553.517 242.171 553.517C242.908 553.517 243.505 554.113 243.505 554.849Z" fill="#4B5EAB"/>
<path d="M250.837 554.849C250.837 555.585 250.24 556.182 249.503 556.182C248.767 556.182 248.17 555.585 248.17 554.849C248.17 554.113 248.767 553.517 249.503 553.517C250.24 553.517 250.837 554.113 250.837 554.849Z" fill="#4B5EAB"/>
<path d="M250.837 562.176C250.837 562.912 250.24 563.509 249.503 563.509C248.767 563.509 248.17 562.912 248.17 562.176C248.17 561.44 248.767 560.844 249.503 560.844C250.24 560.844 250.837 561.44 250.837 562.176Z" fill="#4B5EAB"/>
<path d="M250.837 569.504C250.837 570.24 250.24 570.836 249.503 570.836C248.767 570.836 248.17 570.24 248.17 569.504C248.17 568.767 248.767 568.171 249.503 568.171C250.24 568.171 250.837 568.767 250.837 569.504Z" fill="#4B5EAB"/>
<path d="M250.837 576.835C250.837 577.571 250.24 578.167 249.503 578.167C248.767 578.167 248.17 577.571 248.17 576.835C248.17 576.098 248.767 575.502 249.503 575.502C250.24 575.502 250.837 576.098 250.837 576.835Z" fill="#4B5EAB"/>
<path d="M243.505 562.176C243.505 562.912 242.908 563.509 242.171 563.509C241.435 563.509 240.838 562.912 240.838 562.176C240.838 561.44 241.435 560.844 242.171 560.844C242.908 560.844 243.505 561.44 243.505 562.176Z" fill="#4B5EAB"/>
<path d="M243.505 569.504C243.505 570.24 242.908 570.836 242.171 570.836C241.435 570.836 240.838 570.24 240.838 569.504C240.838 568.767 241.435 568.171 242.171 568.171C242.908 568.171 243.505 568.767 243.505 569.504Z" fill="#4B5EAB"/>
<path d="M243.505 576.835C243.505 577.571 242.908 578.167 242.171 578.167C241.435 578.167 240.838 577.571 240.838 576.835C240.838 576.098 241.435 575.502 242.171 575.502C242.908 575.502 243.505 576.098 243.505 576.835Z" fill="#4B5EAB"/>
<path d="M242.171 555.181C241.986 555.181 241.839 555.03 241.839 554.845L242.02 503.803C242.043 497.355 247.312 492.112 253.761 492.112C259.869 492.112 264.836 487.148 264.836 481.044V427.269C264.836 427.084 264.984 426.937 265.169 426.937C265.354 426.937 265.501 427.084 265.501 427.269V481.044C265.501 487.514 260.235 492.776 253.761 492.776C247.675 492.776 242.708 497.725 242.685 503.807L242.504 554.849C242.504 555.034 242.356 555.181 242.171 555.181Z" fill="#4B5EAB"/>
<path d="M249.503 555.181C249.318 555.181 249.171 555.034 249.171 554.849V542.191C249.171 535.762 254.403 530.534 260.836 530.534C266.902 530.534 271.836 525.604 271.836 519.541V427.273C271.836 427.088 271.983 426.94 272.168 426.94C272.353 426.94 272.501 427.088 272.501 427.273V519.541C272.501 525.97 267.269 531.198 260.836 531.198C254.769 531.198 249.836 536.129 249.836 542.191V554.849C249.84 555.034 249.688 555.181 249.503 555.181Z" fill="#4B5EAB"/>
<path d="M435.608 389.519L426.943 368.311L409.498 366.756L399.277 375.193C398.944 377.858 403.609 378.636 406.832 376.748C410.054 374.861 410.609 374.306 410.609 374.306L415.497 375.529L409.94 376.193C409.94 376.193 400.72 383.298 400.497 383.634C399.941 385.854 402.718 387.299 405.052 386.299C403.054 390.852 408.384 390.852 409.831 390.297C408.943 394.181 413.499 394.74 417.941 395.182C422.383 395.627 423.162 402.954 423.717 406.729C424.272 410.504 429.16 412.947 435.163 412.947L451.719 420.663L456.385 399.179L435.608 389.519Z" fill="#FF8F6E"/>
<path d="M407.164 384.718C407.062 384.718 406.96 384.672 406.896 384.582C406.786 384.435 406.82 384.223 406.967 384.117L411.969 380.452C412.025 380.41 412.093 380.388 412.165 380.388H417.416C417.601 380.388 417.748 380.535 417.748 380.72C417.748 380.905 417.601 381.052 417.416 381.052H412.275L407.364 384.653C407.304 384.695 407.236 384.718 407.164 384.718Z" fill="#C9B8B3"/>
<path d="M411.081 389.711C410.983 389.711 410.889 389.67 410.824 389.591C410.707 389.447 410.73 389.24 410.87 389.122L414.118 386.457C414.179 386.408 414.262 386.382 414.337 386.382L418.089 386.465C418.274 386.469 418.417 386.62 418.413 386.805C418.41 386.986 418.262 387.129 418.081 387.129C418.077 387.129 418.077 387.129 418.073 387.129L414.447 387.05L411.293 389.636C411.232 389.689 411.157 389.711 411.081 389.711Z" fill="#C9B8B3"/>
<path d="M423.415 374.389C423.316 374.389 423.218 374.347 423.154 374.261C422.444 373.358 422.315 372.199 422.833 371.309C423.32 370.467 424.272 370.067 425.379 370.229C425.56 370.255 425.689 370.425 425.658 370.606C425.632 370.788 425.462 370.912 425.281 370.886C424.438 370.761 423.758 371.037 423.407 371.641C423.029 372.294 423.131 373.162 423.675 373.845C423.788 373.989 423.766 374.2 423.619 374.313C423.562 374.366 423.486 374.389 423.415 374.389Z" fill="#C9B8B3"/>
<path d="M424.336 380.226C424.257 380.282 424.151 380.305 424.049 380.275C422.946 379.95 422.175 379.078 422.081 378.051C421.99 377.085 422.538 376.205 423.535 375.699C423.702 375.616 423.902 375.68 423.985 375.847C424.068 376.013 424.004 376.209 423.838 376.296C423.078 376.681 422.682 377.3 422.746 377.995C422.814 378.75 423.403 379.395 424.238 379.64C424.415 379.693 424.514 379.878 424.465 380.056C424.442 380.12 424.393 380.184 424.336 380.226Z" fill="#C9B8B3"/>
<path d="M424.447 386.608C424.367 386.665 424.261 386.688 424.159 386.657C423.056 386.333 422.286 385.461 422.191 384.434C422.101 383.468 422.648 382.588 423.646 382.082C423.812 381.999 424.012 382.063 424.095 382.229C424.178 382.395 424.114 382.592 423.948 382.679C423.189 383.064 422.792 383.683 422.856 384.377C422.924 385.132 423.513 385.778 424.348 386.023C424.526 386.076 424.624 386.261 424.575 386.438C424.552 386.506 424.507 386.567 424.447 386.608Z" fill="#C9B8B3"/>
<path d="M491.719 381.97C491.549 381.97 491.402 381.837 491.387 381.664C491.296 380.629 489.362 356.171 505.311 345.382C505.466 345.28 505.67 345.318 505.775 345.473C505.877 345.624 505.84 345.831 505.685 345.937C490.057 356.507 491.965 380.588 492.052 381.607C492.067 381.792 491.931 381.951 491.75 381.97C491.738 381.97 491.727 381.97 491.719 381.97Z" fill="#000F4E"/>
<path d="M503.218 412.253C503.089 412.253 502.969 412.181 502.912 412.056L494.08 392.207C494.005 392.037 494.08 391.841 494.25 391.77C494.42 391.694 494.616 391.769 494.688 391.939L503.52 411.788C503.596 411.958 503.52 412.155 503.35 412.23C503.309 412.245 503.263 412.253 503.218 412.253Z" fill="#000F4E"/>
<path d="M467.774 397.846L461.941 428.881L450.998 423.716L457.552 393.849L467.774 397.846Z" fill="white"/>
<path d="M503.493 448.368C503.448 448.368 503.399 448.357 503.354 448.338L450.911 424.132C450.771 424.068 450.692 423.913 450.726 423.759L457.17 393.778C457.189 393.683 457.253 393.6 457.34 393.555C457.427 393.51 457.529 393.502 457.62 393.54L514.505 415.967C514.675 416.035 514.762 416.228 514.694 416.401C514.626 416.571 514.433 416.654 514.263 416.59L457.74 394.306L451.436 423.642L503.637 447.734C503.803 447.809 503.879 448.009 503.799 448.175C503.743 448.296 503.622 448.368 503.493 448.368Z" fill="#000F4E"/>
<path d="M461.915 400.372C462.743 400.372 463.414 399.701 463.414 398.874C463.414 398.046 462.743 397.375 461.915 397.375C461.086 397.375 460.415 398.046 460.415 398.874C460.415 399.701 461.086 400.372 461.915 400.372Z" fill="#000F4E"/>
<path d="M331.168 349.323C331.168 350.15 330.496 350.822 329.669 350.822C328.841 350.822 328.169 350.15 328.169 349.323C328.169 348.496 328.841 347.824 329.669 347.824C330.496 347.824 331.168 348.496 331.168 349.323Z" fill="#000F4E"/>
<path d="M442.25 353.32L445.611 361.203L453.223 355.208L455.724 361.757C461.39 358.428 479.28 334.555 479.28 334.555L471.28 327.45L449.279 327.896L437.501 332.339L436.391 357.877L442.25 353.32Z" fill="white"/>
<path d="M455.72 362.093C455.584 362.093 455.459 362.01 455.41 361.878L449.906 347.427L436.598 358.133C436.455 358.247 436.243 358.224 436.13 358.084C436.013 357.941 436.035 357.733 436.179 357.616L449.846 346.623C449.929 346.555 450.038 346.533 450.14 346.563C450.242 346.589 450.326 346.665 450.363 346.767L456.03 361.644C456.094 361.818 456.007 362.01 455.837 362.074C455.799 362.086 455.758 362.093 455.72 362.093Z" fill="#AEB3CC"/>
<path d="M385.5 393.958C385.394 393.958 385.288 393.905 385.224 393.811L379.376 385.144L379.278 392.188C379.274 392.373 379.112 392.501 378.942 392.516C378.757 392.512 378.61 392.361 378.613 392.18L378.723 384.075C378.727 383.928 378.821 383.804 378.961 383.762C379.101 383.721 379.252 383.773 379.331 383.894L385.775 393.445C385.877 393.596 385.84 393.804 385.685 393.909C385.628 393.939 385.564 393.958 385.5 393.958Z" fill="#000F4E"/>
<path d="M258.833 282.932C258.92 282.865 258.973 282.759 258.966 282.642L258.312 272.023L262.758 277.647C262.875 277.795 263.087 277.798 263.234 277.704C263.381 277.587 263.408 277.376 263.291 277.228L258.172 270.754C258.082 270.637 257.923 270.596 257.787 270.649C257.647 270.701 257.56 270.837 257.568 270.985L258.289 282.683C258.301 282.868 258.463 283.012 258.648 283C258.72 282.997 258.784 282.974 258.833 282.932Z" fill="#000F4E"/>
<path d="M462.731 243.468C462.633 243.426 462.557 243.336 462.535 243.222L460.653 232.939L457.741 239.353C457.665 239.519 457.465 239.576 457.299 239.519C457.133 239.444 457.057 239.247 457.133 239.077L460.487 231.697C460.548 231.565 460.687 231.486 460.831 231.505C460.978 231.524 461.092 231.633 461.118 231.777L463.192 243.105C463.226 243.286 463.105 243.46 462.924 243.494C462.856 243.502 462.788 243.494 462.731 243.468Z" fill="#000F4E"/>
<path d="M415.331 363.147C415.327 363.147 415.323 363.147 415.319 363.147C415.134 363.139 414.991 362.988 414.998 362.803C415.002 362.652 415.557 347.628 420.366 338.016C420.449 337.85 420.649 337.786 420.812 337.869C420.978 337.952 421.042 338.152 420.959 338.315C416.215 347.801 415.667 362.679 415.659 362.826C415.659 363.007 415.512 363.147 415.331 363.147Z" fill="#000F4E"/>
<path d="M448.369 319.433C448.369 319.433 447.723 324.125 446.374 327.685C446.374 327.685 442.661 338.115 447.356 342.717C452.052 347.319 469.364 337.84 470.686 327.194C469.613 319.678 472.405 308.852 473.878 306.183C481.244 310.048 486.034 302.317 485.94 297.44C485.849 292.562 480.322 293.114 479.125 294.31C477.928 295.507 475.903 298.361 473.138 296.428C470.376 294.495 474.611 281.611 479.216 275.998C470.282 277.194 459.327 268.361 457.85 260.26C452.048 261.732 447.353 267.345 444.406 273.144C441.46 278.942 440.077 284.556 437.777 291.826C435.476 299.097 432.62 307.655 437.407 313.729C442.2 319.803 448.369 319.433 448.369 319.433Z" fill="#FF8F6E"/>
<path d="M461.903 291.01C461.544 292.23 460.721 293.06 460.06 292.864C459.403 292.671 459.157 291.527 459.516 290.308C459.875 289.089 460.698 288.258 461.359 288.455C462.017 288.647 462.262 289.791 461.903 291.01Z" fill="#1F0F0A"/>
<path d="M459.871 294.159C459.581 294.159 459.286 294.106 459.003 293.993C458.889 293.948 458.833 293.819 458.878 293.706C458.923 293.593 459.052 293.536 459.165 293.582C460.128 293.963 461.239 293.51 461.809 292.513C461.87 292.408 462.006 292.37 462.111 292.43C462.217 292.491 462.255 292.626 462.195 292.732C461.677 293.638 460.782 294.159 459.871 294.159Z" fill="#1F0F0A"/>
<path d="M448.46 285.949C448.101 287.168 447.278 287.999 446.616 287.802C445.959 287.61 445.714 286.466 446.072 285.247C446.431 284.027 447.255 283.197 447.916 283.393C448.573 283.586 448.815 284.729 448.46 285.949Z" fill="#1F0F0A"/>
<path d="M446.427 289.097C446.136 289.097 445.842 289.044 445.558 288.931C445.445 288.885 445.388 288.757 445.434 288.644C445.479 288.53 445.607 288.474 445.721 288.519C446.684 288.9 447.795 288.447 448.365 287.451C448.425 287.345 448.561 287.307 448.667 287.368C448.773 287.428 448.811 287.564 448.75 287.67C448.233 288.576 447.337 289.097 446.427 289.097Z" fill="#1F0F0A"/>
<path d="M447.266 298.701C447.217 298.701 447.168 298.689 447.123 298.663C443.028 296.364 441.574 292.763 442.027 291.792C442.265 291.283 442.926 291.339 443.931 291.43C444.966 291.521 446.382 291.641 448.131 291.305C451.078 290.739 452.94 287.149 453.235 281.456C453.242 281.294 453.397 281.17 453.544 281.177C453.707 281.185 453.832 281.324 453.824 281.487C453.514 287.474 451.482 291.264 448.245 291.883C446.413 292.234 444.89 292.102 443.882 292.015C443.323 291.966 442.627 291.906 442.563 292.042C442.352 292.495 443.36 295.873 447.414 298.149C447.557 298.229 447.606 298.41 447.527 298.55C447.466 298.648 447.368 298.701 447.266 298.701Z" fill="#1F0F0A"/>
<path d="M450.847 306.892C448.777 306.892 443.092 305.866 441.872 302.087C441.822 301.932 441.906 301.766 442.06 301.717C442.215 301.668 442.381 301.755 442.431 301.906C443.688 305.805 450.435 306.534 451.319 306.27C451.474 306.224 451.64 306.311 451.685 306.466C451.731 306.621 451.644 306.787 451.489 306.832C451.368 306.87 451.145 306.892 450.847 306.892Z" fill="#1F0F0A"/>
<path d="M446.567 308.217C444.946 308.217 443.046 307.454 442.483 306.144C442.419 305.993 442.487 305.82 442.638 305.756C442.785 305.691 442.959 305.759 443.027 305.91C443.541 307.096 445.528 307.756 446.993 307.605C447.152 307.59 447.299 307.707 447.318 307.87C447.333 308.032 447.216 308.175 447.054 308.194C446.891 308.209 446.729 308.217 446.567 308.217Z" fill="#C9B8B3"/>
<path d="M468.657 287.839C467.245 284.525 463.562 283.177 462.765 282.992C467.615 280.659 468.903 283.589 468.657 287.839Z" fill="#1F0F0A"/>
<path d="M465.345 281.886C464.272 281.826 462.765 282.992 462.765 282.992C462.95 281.365 464.363 281.305 465.345 281.886Z" fill="#1F0F0A"/>
<path d="M446.027 277.398C449.661 276.416 452.336 278.432 452.336 278.432C451.482 274.37 448.626 274.88 446.027 277.398Z" fill="#1F0F0A"/>
<path d="M451.546 275.914C452.305 276.767 452.339 278.432 452.339 278.432C453.185 276.93 452.675 276.209 451.546 275.914Z" fill="#1F0F0A"/>
<path d="M451.859 319.202C451.572 319.202 451.296 319.195 451.021 319.176C450.858 319.164 450.734 319.025 450.745 318.862C450.756 318.7 450.903 318.572 451.058 318.587C456.373 318.934 463.77 315.695 465.621 312.921C465.711 312.785 465.893 312.747 466.029 312.837C466.165 312.928 466.202 313.109 466.112 313.245C464.276 316.001 457.265 319.202 451.859 319.202Z" fill="#C9B8B3"/>
<path d="M472.315 299.757C471.117 299.757 470.305 299.153 470.294 299.146C470.165 299.047 470.139 298.862 470.237 298.734C470.335 298.606 470.521 298.579 470.649 298.677C470.709 298.723 471.937 299.617 473.565 298.904C472.976 298.791 472.33 298.508 471.79 298.096C470.917 297.432 470.536 296.563 470.736 295.714C470.774 295.556 470.932 295.461 471.091 295.495C471.25 295.533 471.348 295.691 471.31 295.85C471.11 296.684 471.748 297.322 472.149 297.624C473.014 298.285 474.139 298.515 474.566 298.281C474.699 298.206 474.868 298.251 474.952 298.376C475.035 298.504 475.008 298.674 474.891 298.768C473.951 299.527 473.059 299.757 472.315 299.757Z" fill="#1F0F0A"/>
<path d="M471.707 301.252C471.299 301.252 470.547 301.12 469.837 300.301C469.731 300.176 469.742 299.991 469.867 299.885C469.992 299.78 470.177 299.791 470.282 299.916C471.064 300.814 471.85 300.659 471.884 300.652C472.043 300.622 472.201 300.716 472.235 300.874C472.269 301.033 472.175 301.188 472.016 301.226C471.997 301.226 471.884 301.252 471.707 301.252Z" fill="#1F0F0A"/>
<path d="M484.723 299.044C483.76 297.304 482.411 296.934 481.437 296.934C481.429 296.934 481.418 296.934 481.41 296.934C479.182 296.949 476.775 298.878 475.823 300.66C475.748 300.803 475.801 300.98 475.944 301.06C475.99 301.082 476.035 301.094 476.084 301.094C476.19 301.094 476.292 301.037 476.345 300.939C476.787 300.116 477.561 299.255 478.483 298.606C479.948 298.413 480.927 298.878 481.165 299.871C481.441 301.011 480.609 302.638 478.932 303.234C478.777 303.287 478.698 303.457 478.755 303.612C478.796 303.732 478.91 303.808 479.031 303.808C479.065 303.808 479.099 303.804 479.129 303.789C481.169 303.06 482.071 301.116 481.735 299.731C481.493 298.727 480.693 298.123 479.533 298.002C480.149 297.715 480.787 297.526 481.414 297.522C482.619 297.504 483.541 298.123 484.206 299.331C484.285 299.474 484.463 299.523 484.606 299.448C484.753 299.368 484.802 299.187 484.723 299.044Z" fill="#C9B8B3"/>
<path d="M572.528 181.15C571.659 179.572 570.435 179.24 569.555 179.24C569.547 179.24 569.54 179.24 569.532 179.24C567.515 179.255 565.339 180.999 564.478 182.611C564.41 182.74 564.459 182.902 564.587 182.97C564.629 182.993 564.671 183 564.712 183C564.807 183 564.901 182.947 564.946 182.86C565.347 182.113 566.049 181.339 566.88 180.75C568.206 180.577 569.09 180.996 569.309 181.898C569.559 182.932 568.807 184.401 567.288 184.944C567.149 184.993 567.077 185.144 567.126 185.284C567.164 185.393 567.266 185.461 567.375 185.461C567.405 185.461 567.436 185.458 567.466 185.446C569.313 184.789 570.129 183.027 569.827 181.773C569.608 180.867 568.882 180.316 567.832 180.207C568.388 179.946 568.966 179.776 569.532 179.773C570.624 179.757 571.455 180.316 572.059 181.407C572.131 181.535 572.294 181.581 572.422 181.513C572.55 181.441 572.6 181.279 572.528 181.15Z" fill="#C9B8B3"/>
<path d="M482.166 275.204C482.071 275.204 481.984 275.144 481.954 275.049C481.916 274.932 481.981 274.808 482.098 274.77C487.25 273.113 490.28 273.724 490.408 273.751C490.529 273.777 490.605 273.894 490.578 274.011C490.552 274.132 490.435 274.208 490.317 274.181C490.287 274.174 487.265 273.573 482.234 275.189C482.211 275.204 482.188 275.204 482.166 275.204Z" fill="#1F0F0A"/>
<path d="M554.245 169.115C549.746 164.785 545.579 165.616 545.579 165.616C546.913 163.536 549.493 162.12 554.245 169.115Z" fill="#1F0F0A"/>
<path d="M546.701 175.821C547.391 175.821 547.951 174.916 547.951 173.801C547.951 172.685 547.391 171.781 546.701 171.781C546.01 171.781 545.45 172.685 545.45 173.801C545.45 174.916 546.01 175.821 546.701 175.821Z" fill="#1F0F0A"/>
<path d="M535.493 170.592C535.493 171.706 534.934 172.612 534.243 172.612C533.551 172.612 532.992 171.706 532.992 170.592C532.992 169.478 533.551 168.572 534.243 168.572C534.934 168.576 535.493 169.478 535.493 170.592Z" fill="#1F0F0A"/>
<path d="M533.162 181.928C533.125 181.928 533.087 181.921 533.049 181.902C532.346 181.573 530.454 179.946 529.46 178.259C529.272 177.942 529.268 177.56 529.445 177.236C529.63 176.9 529.989 176.685 530.378 176.673C534.541 176.556 537.563 173.049 537.563 168.331C537.563 168.183 537.684 168.062 537.831 168.062C537.979 168.062 538.1 168.183 538.1 168.331C538.1 173.268 534.787 177.081 530.394 177.206C530.19 177.213 530.008 177.319 529.914 177.492C529.827 177.651 529.831 177.828 529.921 177.987C530.847 179.557 532.645 181.12 533.276 181.415C533.408 181.475 533.468 181.634 533.404 181.77C533.359 181.871 533.261 181.928 533.162 181.928Z" fill="#1F0F0A"/>
<path d="M538.881 188.715C536.611 188.715 534.537 187.836 533.068 186.556C532.958 186.458 532.947 186.292 533.041 186.179C533.14 186.065 533.306 186.058 533.419 186.152C535.822 188.243 539.95 189.198 543.762 186.632C543.883 186.548 544.049 186.582 544.132 186.703C544.215 186.824 544.181 186.99 544.06 187.073C542.342 188.232 540.559 188.715 538.881 188.715Z" fill="#1F0F0A"/>
<path d="M531.496 162.702C535.58 161.951 537.412 163.786 537.412 163.786C536.577 160.539 534.495 160.788 531.496 162.702Z" fill="#1F0F0A"/>
<path d="M563.838 191.208C565.312 190.597 566.013 188.908 565.402 187.434C564.791 185.961 563.1 185.261 561.626 185.871C560.151 186.482 559.451 188.171 560.062 189.645C560.673 191.118 562.363 191.818 563.838 191.208Z" fill="white"/>
<path d="M540.91 201.944C540.785 201.944 540.676 201.861 540.649 201.732C540.619 201.589 540.71 201.445 540.853 201.415C549.836 199.456 556.571 192.729 556.636 192.661C556.738 192.555 556.908 192.555 557.013 192.657C557.119 192.759 557.119 192.929 557.017 193.035C556.949 193.102 550.108 199.943 540.967 201.936C540.948 201.94 540.929 201.944 540.91 201.944Z" fill="#C9B8B3"/>
<path d="M567.938 348.326C567.938 348.326 568.603 361.206 564.383 360.761C560.16 360.316 547.94 362.539 545.496 364.536C543.052 366.533 541.941 376.084 543.275 378.303C544.608 380.523 547.275 379.527 547.608 378.081C548.609 380.746 551.608 380.414 552.718 377.971C553.606 381.082 557.051 380.191 557.72 377.639C558.166 380.195 560.719 380.969 561.72 378.417C562.721 375.865 562.831 373.419 564.164 373.419C565.498 373.419 582.051 375.529 585.273 370.531C588.495 365.533 587.494 348.545 587.494 348.545L567.938 348.326Z" fill="#FF8F6E"/>
<path d="M547.245 375.906C547.237 375.906 547.23 375.906 547.218 375.906C547.071 375.891 546.965 375.763 546.976 375.616C546.98 375.57 547.4 371.071 547.981 368.013C548.008 367.869 548.148 367.771 548.291 367.801C548.435 367.828 548.533 367.967 548.503 368.111C547.928 371.146 547.509 375.619 547.505 375.665C547.498 375.801 547.381 375.906 547.245 375.906Z" fill="#C9B8B3"/>
<path d="M553.02 376.685C553.012 376.685 553.005 376.685 552.994 376.685C552.846 376.67 552.74 376.541 552.752 376.394C552.756 376.349 553.175 371.849 553.757 368.791C553.783 368.648 553.923 368.549 554.066 368.58C554.21 368.606 554.308 368.746 554.278 368.889C553.704 371.924 553.284 376.398 553.281 376.443C553.273 376.579 553.156 376.685 553.02 376.685Z" fill="#C9B8B3"/>
<path d="M558.079 376.016C558.071 376.016 558.064 376.016 558.052 376.016C557.905 376.001 557.799 375.873 557.81 375.725C557.814 375.68 557.946 372.879 558.524 369.821C558.551 369.678 558.691 369.58 558.834 369.61C558.978 369.636 559.076 369.776 559.046 369.92C558.471 372.955 558.343 375.729 558.339 375.775C558.328 375.914 558.215 376.016 558.079 376.016Z" fill="#C9B8B3"/>
<path d="M576.078 361.75C576.071 361.75 576.059 361.75 576.052 361.75C570.219 361.176 566.45 361.169 566.412 361.169C566.264 361.169 566.144 361.048 566.144 360.901C566.144 360.754 566.264 360.633 566.412 360.633C566.45 360.633 570.242 360.64 576.105 361.218C576.252 361.233 576.358 361.361 576.343 361.509C576.328 361.645 576.214 361.75 576.078 361.75Z" fill="#C9B8B3"/>
<path d="M548.582 365.574C548.322 365.574 548.076 365.533 547.861 365.446C547.453 365.28 547.207 364.955 547.147 364.517C547.128 364.37 547.23 364.238 547.377 364.219C547.513 364.2 547.657 364.302 547.676 364.449C547.71 364.695 547.834 364.861 548.065 364.955C548.65 365.197 549.765 364.921 550.501 364.355C550.618 364.264 550.785 364.287 550.875 364.404C550.966 364.521 550.943 364.687 550.826 364.778C550.237 365.227 549.349 365.574 548.582 365.574Z" fill="#C9B8B3"/>
<path d="M553.108 366.265C552.847 366.265 552.601 366.223 552.386 366.136C551.978 365.97 551.733 365.646 551.672 365.208C551.653 365.06 551.755 364.928 551.903 364.909C552.039 364.891 552.182 364.993 552.201 365.14C552.235 365.385 552.36 365.551 552.59 365.646C553.176 365.887 554.29 365.612 555.027 365.045C555.144 364.955 555.31 364.977 555.401 365.094C555.491 365.211 555.469 365.378 555.351 365.468C554.762 365.921 553.874 366.265 553.108 366.265Z" fill="#C9B8B3"/>
<path d="M557.637 367.156C557.376 367.156 557.131 367.115 556.915 367.028C556.507 366.862 556.262 366.537 556.201 366.099C556.183 365.952 556.285 365.82 556.432 365.801C556.568 365.782 556.711 365.884 556.73 366.031C556.764 366.277 556.889 366.443 557.119 366.537C557.705 366.779 558.819 366.503 559.556 365.937C559.673 365.846 559.839 365.869 559.93 365.986C560.02 366.103 559.998 366.269 559.881 366.36C559.291 366.809 558.404 367.156 557.637 367.156Z" fill="#C9B8B3"/>
<path d="M562.551 368.515C562.29 368.515 562.045 368.473 561.829 368.386C561.422 368.22 561.176 367.896 561.116 367.458C561.097 367.31 561.199 367.178 561.346 367.159C561.482 367.141 561.625 367.243 561.644 367.39C561.678 367.635 561.803 367.801 562.033 367.896C562.619 368.137 563.733 367.862 564.47 367.295C564.587 367.205 564.753 367.227 564.844 367.344C564.935 367.461 564.912 367.628 564.795 367.718C564.205 368.167 563.318 368.515 562.551 368.515Z" fill="#C9B8B3"/>
<path d="M506.384 250.946C506.327 250.946 506.267 250.931 506.214 250.901C506.055 250.807 506.002 250.603 506.097 250.444C506.157 250.342 512.288 239.961 512.938 230.607C512.949 230.422 513.096 230.29 513.293 230.297C513.478 230.309 513.614 230.471 513.603 230.652C512.938 240.169 506.731 250.682 506.667 250.784C506.607 250.89 506.497 250.946 506.384 250.946Z" fill="#000F4E"/>
<path d="M569.049 239.621C569.041 239.621 569.034 239.621 569.026 239.621C568.841 239.61 568.701 239.451 568.713 239.266C568.728 239.055 570.212 217.904 583.554 210.792C583.717 210.705 583.917 210.765 584.004 210.928C584.091 211.09 584.03 211.29 583.868 211.377C570.854 218.311 569.389 239.097 569.377 239.308C569.37 239.485 569.223 239.621 569.049 239.621Z" fill="#000F4E"/>
<path d="M563.938 310.516C563.756 310.516 563.609 310.372 563.605 310.191L562.941 279.546C562.937 279.361 563.084 279.21 563.265 279.206C563.447 279.221 563.602 279.349 563.605 279.531L564.27 310.176C564.274 310.361 564.127 310.512 563.945 310.516C563.942 310.516 563.942 310.516 563.938 310.516Z" fill="#000F4E"/>
<path d="M342.724 180.796V245.82C342.724 248.406 344.824 250.505 347.411 250.505H369.011C368.335 248.803 368.033 246.911 368.252 244.918C368.875 239.173 373.741 234.643 379.52 234.439C386.21 234.201 391.71 239.554 391.71 246.187C391.71 247.712 391.412 249.165 390.879 250.501H412.479C415.066 250.501 417.167 248.403 417.167 245.817V180.796C417.167 178.21 415.066 176.111 412.479 176.111H347.411C344.82 176.111 342.724 178.206 342.724 180.796Z" fill="#FFD35A"/>
<path d="M350.165 200.207C348.197 200.207 346.342 200.702 344.722 201.57V180.656C344.722 178.146 342.686 176.111 340.174 176.111H277.052C274.54 176.111 272.504 178.146 272.504 180.656V243.74C272.504 246.251 274.54 248.286 277.052 248.286H340.178C342.69 248.286 344.726 246.251 344.726 243.74V221.94C346.35 222.808 348.201 223.303 350.169 223.303C356.549 223.303 361.724 218.131 361.724 211.755C361.721 205.375 356.549 200.207 350.165 200.207Z" fill="#FF852F"/>
<path d="M296.612 242.453C296.612 244.42 297.107 246.273 297.975 247.893H277.048C274.536 247.893 272.5 249.928 272.5 252.438V315.522C272.5 318.032 274.536 320.067 277.048 320.067H340.174C342.686 320.067 344.722 318.032 344.722 315.522V252.438C344.722 249.928 342.686 247.893 340.174 247.893H318.359C319.228 246.27 319.722 244.42 319.722 242.453C319.722 236.077 314.547 230.905 308.167 230.905C301.787 230.905 296.612 236.077 296.612 242.453Z" fill="#FFD35A"/>
<path d="M391.998 175.945C391.998 175.945 392.662 190.77 390.664 192.268C388.666 193.767 386.498 192.268 385.999 190.603C384.167 194.103 380.333 193.102 379.834 190.936C378.168 194.265 374.168 191.936 373.835 190.437C372.668 193.937 369.336 191.77 368.502 189.773C367.667 187.776 367.633 175.239 367.837 173.45C368.249 169.781 391.499 166.617 391.998 175.945Z" fill="#FF8F6E"/>
<path d="M388.696 175.341C388.012 175.341 387.166 175.001 386.501 174.023C386.399 173.872 386.437 173.665 386.592 173.559C386.743 173.457 386.951 173.495 387.057 173.649C387.665 174.548 388.432 174.756 388.945 174.65C389.331 174.571 389.61 174.321 389.674 173.989C389.708 173.808 389.886 173.691 390.067 173.729C390.249 173.767 390.366 173.94 390.328 174.121C390.207 174.718 389.727 175.171 389.074 175.303C388.957 175.326 388.828 175.341 388.696 175.341Z" fill="#C9B8B3"/>
<path d="M383.332 175.061C382.648 175.061 381.802 174.722 381.137 173.744C381.035 173.593 381.073 173.385 381.228 173.28C381.379 173.178 381.587 173.215 381.692 173.37C382.301 174.269 383.067 174.476 383.581 174.371C383.966 174.291 384.246 174.042 384.31 173.71C384.344 173.529 384.522 173.412 384.703 173.449C384.884 173.487 385.001 173.661 384.964 173.842C384.843 174.439 384.363 174.892 383.71 175.024C383.592 175.05 383.468 175.061 383.332 175.061Z" fill="#C9B8B3"/>
<path d="M377.027 175.284C376.343 175.284 375.497 174.944 374.832 173.967C374.73 173.816 374.768 173.608 374.923 173.502C375.074 173.4 375.282 173.438 375.388 173.593C375.996 174.491 376.763 174.699 377.276 174.593C377.662 174.514 377.941 174.265 378.005 173.933C378.039 173.751 378.217 173.634 378.398 173.672C378.58 173.71 378.697 173.884 378.659 174.065C378.538 174.661 378.058 175.114 377.405 175.246C377.288 175.273 377.163 175.284 377.027 175.284Z" fill="#C9B8B3"/>
<path d="M371.361 175.48C370.677 175.48 369.831 175.141 369.166 174.163C369.064 174.012 369.102 173.804 369.257 173.699C369.408 173.597 369.616 173.634 369.722 173.789C370.33 174.688 371.097 174.895 371.61 174.79C371.996 174.71 372.275 174.461 372.339 174.129C372.373 173.948 372.551 173.831 372.732 173.868C372.914 173.906 373.031 174.08 372.993 174.261C372.872 174.857 372.392 175.31 371.739 175.443C371.622 175.465 371.497 175.48 371.361 175.48Z" fill="#C9B8B3"/>
<path d="M386.112 189.267C386.108 189.267 386.108 189.267 386.112 189.267C385.923 189.263 385.776 189.116 385.779 188.931L385.889 177.938C385.889 177.753 386.029 177.594 386.225 177.609C386.41 177.613 386.558 177.76 386.554 177.945L386.444 188.938C386.44 189.119 386.293 189.267 386.112 189.267Z" fill="#C9B8B3"/>
<path d="M379.834 189.157C379.831 189.157 379.831 189.157 379.834 189.157C379.646 189.153 379.498 189.006 379.502 188.821L379.612 177.828C379.612 177.643 379.751 177.485 379.948 177.5C380.133 177.504 380.28 177.651 380.276 177.836L380.167 188.829C380.163 189.01 380.016 189.157 379.834 189.157Z" fill="#C9B8B3"/>
<path d="M373.888 188.992C373.699 188.988 373.552 188.844 373.556 188.671L373.665 178.15C373.665 177.972 373.805 177.821 374.001 177.833C374.187 177.836 374.334 177.98 374.33 178.154L374.221 188.674C374.221 188.852 374.069 188.992 373.888 188.992Z" fill="#C9B8B3"/>
<path d="M304.873 326.167C299.619 326.167 296.336 325.393 295.441 323.895C295.108 323.336 295.139 322.702 295.528 322.105C296.699 320.312 302.539 320.437 308.719 320.569C309.682 320.592 310.638 320.61 311.559 320.622C311.744 320.626 311.892 320.777 311.888 320.958C311.884 321.139 311.737 321.286 311.556 321.286H311.552C310.63 321.275 309.671 321.252 308.704 321.233C303.513 321.124 297.054 320.984 296.083 322.468C295.834 322.849 295.811 323.215 296.011 323.551C296.404 324.208 298.659 326.262 311.193 325.201C311.386 325.186 311.537 325.322 311.552 325.503C311.567 325.688 311.431 325.846 311.25 325.862C308.885 326.069 306.754 326.167 304.873 326.167Z" fill="#C9B8B3"/>
<path d="M178.172 389.961C178.172 389.961 178.505 398.787 181.006 399.953C183.506 401.12 190.672 401.286 190.672 403.785C190.672 406.284 187.673 412.777 187.839 418.273C188.171 419.274 184.005 419.606 184.005 419.606C184.005 419.606 184.67 430.599 182.339 431.263C180.005 431.928 177.338 431.928 175.838 430.263C172.506 432.26 169.503 431.097 169.004 430.097C167.172 432.928 162.171 430.263 161.672 428.764C160.006 430.429 155.507 428.93 154.673 425.435C153.838 421.935 153.173 410.112 155.005 401.452C156.837 392.792 156.837 390.791 156.837 390.791L178.172 389.961Z" fill="#FF8F6E"/>
<path d="M183.838 418.443C183.676 418.443 183.533 418.322 183.51 418.156C183.491 418.035 183.102 415.102 184.681 408.62C184.726 408.443 184.908 408.333 185.085 408.375C185.263 408.42 185.372 408.598 185.331 408.779C183.786 415.113 184.167 418.035 184.171 418.065C184.197 418.247 184.069 418.416 183.888 418.443C183.869 418.443 183.854 418.443 183.838 418.443Z" fill="#C9B8B3"/>
<path d="M175.755 429.27C175.589 429.27 175.449 429.149 175.427 428.979C174.686 423.456 174.346 420.089 174.343 420.059C174.324 419.874 174.46 419.711 174.641 419.693C174.83 419.677 174.989 419.81 175.007 419.991C175.011 420.025 175.347 423.381 176.088 428.889C176.11 429.07 175.986 429.24 175.801 429.262C175.786 429.266 175.77 429.27 175.755 429.27Z" fill="#C9B8B3"/>
<path d="M168.755 429.27C168.597 429.27 168.457 429.157 168.427 428.995C167.433 423.287 167.422 421.195 167.422 421.109C167.422 420.924 167.569 420.776 167.754 420.776C167.939 420.776 168.087 420.924 168.087 421.109C168.087 421.131 168.102 423.245 169.08 428.881C169.11 429.062 168.99 429.236 168.808 429.266C168.793 429.266 168.774 429.27 168.755 429.27Z" fill="#C9B8B3"/>
<path d="M161.589 428.021C161.431 428.021 161.291 427.907 161.261 427.749C160.6 424.11 160.426 421.822 160.422 421.803C160.407 421.618 160.547 421.46 160.728 421.444C160.917 421.429 161.072 421.569 161.087 421.75C161.087 421.773 161.261 424.027 161.914 427.628C161.948 427.809 161.827 427.983 161.646 428.017C161.631 428.017 161.608 428.021 161.589 428.021Z" fill="#C9B8B3"/>
<path d="M178.728 417.62C177.885 417.62 177.073 417.145 176.556 416.329C176.458 416.174 176.503 415.967 176.658 415.869C176.813 415.771 177.02 415.816 177.119 415.971C177.553 416.658 178.252 417.028 178.932 416.937C179.646 416.843 180.224 416.246 180.518 415.299C180.571 415.125 180.756 415.027 180.934 415.08C181.111 415.133 181.21 415.321 181.153 415.495C180.779 416.699 180.001 417.465 179.019 417.594C178.924 417.613 178.826 417.62 178.728 417.62Z" fill="#C9B8B3"/>
<path d="M170.939 417.994C170.096 417.994 169.284 417.519 168.767 416.703C168.668 416.548 168.714 416.341 168.869 416.243C169.024 416.145 169.231 416.19 169.33 416.345C169.764 417.032 170.463 417.402 171.143 417.311C171.857 417.217 172.435 416.62 172.729 415.673C172.782 415.499 172.967 415.401 173.145 415.454C173.322 415.507 173.421 415.695 173.364 415.869C172.99 417.073 172.212 417.839 171.23 417.968C171.131 417.99 171.037 417.994 170.939 417.994Z" fill="#C9B8B3"/>
<path d="M163.69 418.579C162.847 418.579 162.035 418.104 161.518 417.288C161.419 417.134 161.465 416.926 161.62 416.828C161.775 416.73 161.982 416.775 162.081 416.93C162.515 417.617 163.214 417.987 163.894 417.896C164.608 417.802 165.186 417.205 165.48 416.258C165.533 416.084 165.718 415.986 165.896 416.039C166.073 416.092 166.172 416.28 166.115 416.454C165.741 417.658 164.963 418.425 163.981 418.553C163.882 418.572 163.784 418.579 163.69 418.579Z" fill="#C9B8B3"/>
<path d="M157.231 419.409C156.388 419.409 155.576 418.934 155.059 418.118C154.96 417.963 155.006 417.756 155.161 417.658C155.316 417.56 155.523 417.605 155.622 417.76C156.056 418.447 156.755 418.817 157.435 418.726C158.149 418.632 158.727 418.035 159.021 417.088C159.074 416.914 159.259 416.816 159.437 416.869C159.614 416.922 159.713 417.11 159.656 417.284C159.282 418.488 158.504 419.255 157.522 419.383C157.427 419.406 157.329 419.409 157.231 419.409Z" fill="#C9B8B3"/>
<path d="M172.956 248.138C172.767 248.138 172.616 247.987 172.616 247.799C172.616 240.826 167.754 225.643 152.72 223.22C152.535 223.189 152.41 223.016 152.44 222.831C152.47 222.646 152.64 222.517 152.829 222.551C168.294 225.043 173.296 240.637 173.296 247.799C173.296 247.987 173.144 248.138 172.956 248.138Z" fill="#000F4E"/>
<path d="M176.518 375.922C176.356 375.922 176.216 375.809 176.186 375.643C175.778 373.4 166.176 320.709 166.009 319.361C165.839 318.002 170.557 277.768 171.098 273.185C171.12 273 171.29 272.865 171.475 272.887C171.66 272.91 171.796 273.076 171.774 273.265C170.316 285.662 166.565 318.097 166.686 319.282C166.852 320.611 176.756 374.978 176.858 375.526C176.892 375.711 176.771 375.884 176.586 375.918C176.556 375.918 176.537 375.922 176.518 375.922Z" fill="#000F4E"/>
<path d="M230.105 293.559C230.101 293.559 230.098 293.559 230.094 293.559C229.905 293.551 229.761 293.396 229.765 293.208C229.78 292.807 231.106 253.147 229.769 244.635C229.739 244.45 229.867 244.276 230.052 244.246C230.241 244.219 230.411 244.344 230.441 244.529C231.786 253.106 230.46 292.83 230.445 293.23C230.438 293.415 230.287 293.559 230.105 293.559Z" fill="#000F4E"/>
<path d="M266.226 225.771C266.056 223.736 265.716 201.03 267.072 198.146C268.428 195.265 271.99 193.23 271.99 193.23L272.16 196.62C275.352 197.13 284.796 196.583 289.265 196.284C290.791 196.183 292.079 197.451 291.954 198.976C291.765 201.317 290.436 203.959 286.065 204.42C279.621 205.099 274.362 204.42 273.856 211.539C273.346 218.659 272.16 225.945 272.16 225.945L266.226 225.771Z" fill="#FF8F6E"/>
<path d="M174.172 176.284C174.138 176.243 174.085 176.148 174.006 176.02C171.615 172.079 168.763 170.75 165.54 172.075C165.355 172.15 165.265 172.366 165.34 172.551C165.416 172.736 165.631 172.826 165.816 172.751C167.996 171.856 169.699 172.471 170.961 173.468C169.93 173.457 168.921 173.928 168.373 174.751C167.728 175.718 167.89 176.892 168.808 177.888C168.88 177.968 168.978 178.005 169.076 178.005C169.163 178.005 169.254 177.975 169.322 177.911C169.469 177.775 169.48 177.545 169.344 177.398C168.661 176.654 168.528 175.835 168.982 175.155C169.458 174.442 170.598 173.917 171.781 174.34C171.822 174.355 171.868 174.359 171.909 174.359C172.608 175.129 173.099 175.933 173.382 176.401C173.484 176.571 173.56 176.688 173.602 176.745C173.673 176.835 173.779 176.881 173.885 176.881C173.964 176.881 174.043 176.854 174.111 176.801C174.27 176.673 174.297 176.443 174.172 176.284Z" fill="#C9B8B3"/>
<path d="M190.884 163.204C193.985 160.045 199.7 158.769 200.429 158.769C197.147 156.64 192.527 157.613 190.884 163.204Z" fill="#1F0F0A"/>
<path d="M197.635 157.338C199.52 157.825 200.434 158.765 200.434 158.765C200.339 157.432 199.063 156.855 197.635 157.338Z" fill="#1F0F0A"/>
<path d="M209.612 158.829C213.809 159.863 215.328 161.988 215.328 161.988C214.599 157.855 211.135 158.1 209.612 158.829Z" fill="#1F0F0A"/>
<path d="M211.713 158.07C210.527 158.13 209.616 158.829 209.616 158.829C209.703 157.613 211.135 157.825 211.713 158.07Z" fill="#1F0F0A"/>
<path d="M203.107 189.338C201.487 189.338 199.712 188.61 198.635 187.387C198.503 187.236 198.518 187.005 198.669 186.873C198.82 186.741 199.05 186.756 199.183 186.907C200.425 188.319 202.832 188.995 204.433 188.387C204.622 188.315 204.834 188.41 204.906 188.598C204.977 188.787 204.883 188.999 204.694 189.07C204.21 189.251 203.67 189.338 203.107 189.338Z" fill="#1F0F0A"/>
<path d="M180.062 191.947C179.975 191.947 179.888 191.917 179.816 191.853C179.654 191.705 175.824 188.183 174.596 182.423C174.554 182.226 174.679 182.034 174.875 181.988C175.072 181.947 175.264 182.071 175.31 182.268C176.488 187.802 180.27 191.275 180.307 191.309C180.459 191.445 180.47 191.675 180.334 191.822C180.258 191.909 180.16 191.947 180.062 191.947Z" fill="#C9B8B3"/>
<path d="M199.591 201.279C191.915 201.279 188.145 198.202 187.975 198.059C187.82 197.93 187.801 197.7 187.93 197.545C188.058 197.39 188.289 197.372 188.443 197.5C188.489 197.538 192.961 201.165 201.925 200.456C202.129 200.437 202.303 200.592 202.318 200.792C202.333 200.992 202.182 201.169 201.982 201.184C201.147 201.252 200.346 201.279 199.591 201.279Z" fill="#C9B8B3"/>
<path d="M195.855 170.267C195.81 171.633 196.373 172.758 197.113 172.781C197.85 172.803 198.484 171.716 198.53 170.353C198.575 168.987 198.012 167.862 197.272 167.839C196.531 167.813 195.9 168.9 195.855 170.267Z" fill="#1F0F0A"/>
<path d="M196.871 174.17C197.17 174.269 197.487 174.314 197.816 174.295C197.948 174.287 198.046 174.174 198.038 174.046C198.031 173.914 197.918 173.816 197.789 173.823C196.679 173.887 195.693 173.053 195.447 171.841C195.421 171.713 195.296 171.63 195.168 171.656C195.039 171.683 194.956 171.807 194.982 171.936C195.198 173.027 195.938 173.861 196.871 174.17Z" fill="#1F0F0A"/>
<path d="M209.749 169.732C209.703 171.098 210.266 172.223 211.007 172.246C211.743 172.268 212.378 171.181 212.423 169.818C212.468 168.452 211.906 167.327 211.165 167.304C210.429 167.278 209.794 168.365 209.749 169.732Z" fill="#1F0F0A"/>
<path d="M210.765 173.63C211.063 173.729 211.38 173.774 211.709 173.755C211.841 173.747 211.939 173.634 211.932 173.506C211.924 173.374 211.811 173.276 211.683 173.283C210.572 173.347 209.586 172.513 209.341 171.301C209.314 171.173 209.19 171.09 209.061 171.116C208.933 171.143 208.85 171.267 208.876 171.396C209.095 172.49 209.832 173.325 210.765 173.63Z" fill="#1F0F0A"/>
<path d="M194.412 181.777C189.139 181.777 184.852 177.489 184.852 172.222C184.852 166.953 189.143 162.668 194.412 162.668C199.686 162.668 203.973 166.953 203.973 172.222C203.973 177.489 199.686 181.777 194.412 181.777ZM194.412 163.381C189.536 163.381 185.566 167.345 185.566 172.219C185.566 177.092 189.532 181.06 194.412 181.06C199.289 181.06 203.259 177.096 203.259 172.219C203.259 167.349 199.289 163.381 194.412 163.381Z" fill="#1F0F0A"/>
<path d="M207.769 173.774C207.554 173.034 207.44 172.252 207.44 171.445C207.44 166.835 211.195 163.083 215.808 163.083C220.42 163.083 224.175 166.835 224.175 171.445C224.175 176.054 220.42 179.806 215.808 179.806C215.203 179.806 214.614 179.742 214.047 179.621L214.342 179.04C214.818 179.131 215.305 179.18 215.808 179.18C220.076 179.18 223.548 175.71 223.548 171.445C223.548 167.179 220.076 163.71 215.808 163.71C211.539 163.71 208.067 167.179 208.067 171.445C208.067 172.464 208.268 173.442 208.627 174.333L207.769 173.774Z" fill="#1F0F0A"/>
<path d="M207.426 182.468C207.229 182.468 207.067 182.309 207.059 182.109C207.055 181.909 207.214 181.743 207.418 181.735C210.077 181.682 213.337 179.829 213.885 179.236C213.662 179.01 213.001 178.56 212.412 178.16C211.041 177.232 209.159 175.956 208.166 174.6C206.451 172.252 206.572 171.339 206.935 168.632C206.961 168.432 207.15 168.258 207.35 168.285C207.55 168.311 207.694 168.462 207.667 168.662L207.66 168.73C207.308 171.358 207.214 172.064 208.759 174.174C209.677 175.431 211.494 176.662 212.824 177.564C214.259 178.538 214.712 178.866 214.667 179.293C214.565 180.221 210.327 182.415 207.441 182.475C207.429 182.468 207.426 182.468 207.426 182.468Z" fill="#1F0F0A"/>
<path d="M464.211 146.07L410.824 116.927L411.463 115.761L463.853 144.356L508.835 86.1797L509.889 86.9951L464.211 146.07Z" fill="#D81159"/>
<path d="M413.366 121.672C416.314 120.452 417.713 117.076 416.492 114.131C415.271 111.186 411.893 109.787 408.946 111.007C405.999 112.227 404.599 115.603 405.82 118.549C407.041 121.494 410.419 122.892 413.366 121.672Z" fill="#D81159"/>
<path d="M464.03 150.984C467.22 150.984 469.805 148.4 469.805 145.212C469.805 142.025 467.22 139.44 464.03 139.44C460.84 139.44 458.254 142.025 458.254 145.212C458.254 148.4 460.84 150.984 464.03 150.984Z" fill="#D81159"/>
<path d="M511.586 91.9126C514.533 90.6926 515.933 87.3161 514.712 84.3709C513.491 81.4257 510.113 80.0271 507.165 81.2471C504.218 82.4671 502.819 85.8436 504.04 88.7888C505.26 91.734 508.639 93.1325 511.586 91.9126Z" fill="#D81159"/>
<path d="M322.33 128.278L312.549 138.053L314.67 140.172L324.451 130.397L322.33 128.278Z" fill="#FFBC42"/>
<path d="M314.67 128.277L312.549 130.396L322.33 140.171L324.451 138.052L314.67 128.277Z" fill="#FFBC42"/>
<path d="M87.8415 219.859C89.1913 219.859 90.2855 218.766 90.2855 217.417C90.2855 216.068 89.1913 214.975 87.8415 214.975C86.4917 214.975 85.3975 216.068 85.3975 217.417C85.3975 218.766 86.4917 219.859 87.8415 219.859Z" fill="#FFBC42"/>
<path d="M102.287 217.417C102.287 218.765 101.191 219.859 99.8425 219.859C98.4939 219.859 97.3984 218.765 97.3984 217.417C97.3984 216.069 98.4939 214.975 99.8425 214.975C101.191 214.971 102.287 216.066 102.287 217.417Z" fill="#FFBC42"/>
<path d="M113.62 217.417C113.62 218.765 112.524 219.859 111.175 219.859C109.827 219.859 108.731 218.765 108.731 217.417C108.731 216.069 109.827 214.975 111.175 214.975C112.524 214.971 113.62 216.066 113.62 217.417Z" fill="#FFBC42"/>
<path d="M124.287 217.417C124.287 218.765 123.191 219.859 121.842 219.859C120.494 219.859 119.398 218.765 119.398 217.417C119.398 216.069 120.494 214.975 121.842 214.975C123.191 214.971 124.287 216.066 124.287 217.417Z" fill="#FFBC42"/>
<path d="M87.8415 209.199C89.1913 209.199 90.2855 208.106 90.2855 206.757C90.2855 205.408 89.1913 204.314 87.8415 204.314C86.4917 204.314 85.3975 205.408 85.3975 206.757C85.3975 208.106 86.4917 209.199 87.8415 209.199Z" fill="#FFBC42"/>
<path d="M102.287 206.757C102.287 208.105 101.191 209.199 99.8425 209.199C98.4939 209.199 97.3984 208.105 97.3984 206.757C97.3984 205.409 98.4939 204.314 99.8425 204.314C101.191 204.314 102.287 205.409 102.287 206.757Z" fill="#FFBC42"/>
<path d="M113.62 206.757C113.62 208.105 112.524 209.199 111.175 209.199C109.827 209.199 108.731 208.105 108.731 206.757C108.731 205.409 109.827 204.314 111.175 204.314C112.524 204.314 113.62 205.409 113.62 206.757Z" fill="#FFBC42"/>
<path d="M124.287 206.757C124.287 208.105 123.191 209.199 121.842 209.199C120.494 209.199 119.398 208.105 119.398 206.757C119.398 205.409 120.494 204.314 121.842 204.314C123.191 204.314 124.287 205.409 124.287 206.757Z" fill="#FFBC42"/>
<path d="M90.2855 229.407C90.2855 230.755 89.1901 231.85 87.8415 231.85C86.4929 231.85 85.3975 230.755 85.3975 229.407C85.3975 228.06 86.4929 226.965 87.8415 226.965C89.1938 226.965 90.2855 228.06 90.2855 229.407Z" fill="#FFBC42"/>
<path d="M102.287 229.407C102.287 230.755 101.191 231.85 99.8425 231.85C98.4939 231.85 97.3984 230.755 97.3984 229.407C97.3984 228.06 98.4939 226.965 99.8425 226.965C101.191 226.965 102.287 228.06 102.287 229.407Z" fill="#FFBC42"/>
<path d="M113.62 229.407C113.62 230.755 112.524 231.85 111.175 231.85C109.827 231.85 108.731 230.755 108.731 229.407C108.731 228.06 109.827 226.965 111.175 226.965C112.524 226.965 113.62 228.06 113.62 229.407Z" fill="#FFBC42"/>
<path d="M124.287 229.407C124.287 230.755 123.191 231.85 121.842 231.85C120.494 231.85 119.398 230.755 119.398 229.407C119.398 228.06 120.494 226.965 121.842 226.965C123.191 226.965 124.287 228.06 124.287 229.407Z" fill="#FFBC42"/>
<path d="M659.602 308.576H640.938V327.228H659.602V308.576Z" fill="#FFBC42"/>
<path d="M119.49 491.111L106.292 477.922L93.0943 491.111L106.292 504.3L119.49 491.111Z" fill="#D81159"/>
<path d="M126.509 513.766V501.554H114.289V513.766H126.509Z" fill="#FFBC42"/>
<path d="M401.014 301.241C403.097 299.159 403.097 295.784 401.014 293.703C398.931 291.621 395.554 291.621 393.471 293.703C391.388 295.784 391.388 299.159 393.471 301.241C395.554 303.322 398.931 303.322 401.014 301.241Z" fill="#D81159"/>
<path d="M411.331 298.527H399.001L405.166 284.537L411.331 298.527Z" fill="#FFD35A"/>
<path d="M651.31 536.349H638.977L645.145 522.358L651.31 536.349Z" fill="#D81159"/>
<path d="M640.871 544.273C644.451 540.695 644.451 534.894 640.871 531.317C637.291 527.739 631.486 527.739 627.906 531.317C624.325 534.894 624.325 540.695 627.906 544.273C631.486 547.851 637.291 547.851 640.871 544.273Z" fill="#FFBC42"/>
<path d="M208.506 174.001C208.374 174.001 208.249 173.922 208.196 173.794C207.803 172.824 207.078 172.212 206.153 172.08C204.963 171.906 203.622 172.552 202.655 173.764C202.541 173.907 202.33 173.933 202.186 173.816C202.043 173.703 202.02 173.492 202.133 173.348C203.244 171.952 204.827 171.208 206.247 171.419C207.414 171.589 208.329 172.344 208.812 173.545C208.88 173.714 208.797 173.911 208.627 173.979C208.589 173.994 208.548 174.001 208.506 174.001Z" fill="#1F0F0A"/>
<path d="M185.104 172.393C184.972 172.393 181.077 171.588 173.538 169.999C173.356 169.961 173.243 169.784 173.281 169.603C173.318 169.422 173.496 169.308 173.677 169.346C178.116 170.282 184.832 171.687 185.142 171.728C185.327 171.728 185.459 171.875 185.459 172.06C185.452 172.242 185.289 172.393 185.104 172.393Z" fill="#1F0F0A"/>
</svg>
