<svg width="22" height="29" viewBox="0 0 22 29" fill="none" xmlns="http://www.w3.org/2000/svg">
<path fill-rule="evenodd" clip-rule="evenodd" d="M10.7539 28.5273C9.92548 28.5273 9.25391 27.8558 9.25391 27.0273L9.25391 1.99951C9.25391 1.17109 9.92548 0.499512 10.7539 0.499512C11.5823 0.499511 12.2539 1.17109 12.2539 1.99951L12.2539 27.0273C12.2539 27.8558 11.5823 28.5273 10.7539 28.5273Z" fill="currentColor"/>
<path fill-rule="evenodd" clip-rule="evenodd" d="M1.06341 14.1208C0.416343 13.6035 0.311139 12.6596 0.828433 12.0125L9.58203 1.06287C9.86668 0.706815 10.2978 0.499517 10.7537 0.499517C11.2095 0.499517 11.6406 0.706815 11.9253 1.06287L20.6789 12.0125C21.1962 12.6596 21.091 13.6035 20.4439 14.1208C19.7968 14.6381 18.8529 14.5329 18.3356 13.8858L10.7537 4.40171L3.17168 13.8858C2.65438 14.5329 1.71048 14.6381 1.06341 14.1208Z" fill="currentColor"/>
</svg>
