<svg width="104" height="104" viewBox="0 0 104 104" fill="none" xmlns="http://www.w3.org/2000/svg">
<path d="M46.8947 57.55V87.15H17V57.55H46.8947ZM39.4211 64.95H24.4737V79.75H39.4211V64.95ZM50.6316 15L71.1842 48.3H30.0789L50.6316 15ZM50.6316 29.282L43.4568 40.9H57.8063L50.6316 29.282V29.282ZM71.1842 55.7C80.5263 55.7 88 63.1 88 72.35C88 81.6 80.5263 89 71.1842 89C61.8421 89 54.3684 81.6 54.3684 72.35C54.3684 63.1 61.8421 55.7 71.1842 55.7ZM71.1842 63.1C68.7065 63.1 66.3303 64.0746 64.5783 65.8093C62.8264 67.544 61.8421 69.8967 61.8421 72.35C61.8421 74.8033 62.8264 77.156 64.5783 78.8907C66.3303 80.6255 68.7065 81.6 71.1842 81.6C73.6619 81.6 76.0381 80.6255 77.7901 78.8907C79.5421 77.156 80.5263 74.8033 80.5263 72.35C80.5263 69.8967 79.5421 67.544 77.7901 65.8093C76.0381 64.0746 73.6619 63.1 71.1842 63.1Z" fill="#D81159"/>
</svg>
