<svg width="100" height="100" viewBox="0 0 100 100" fill="none" xmlns="http://www.w3.org/2000/svg">
<path d="M44.8704 54.8221V80.4375H19V54.8221H44.8704ZM38.4028 61.226H25.4676V74.0337H38.4028V61.226ZM48.1043 18L65.8902 46.8173H30.3183L48.1043 18ZM48.1043 30.3594L41.8953 40.4135H54.3132L48.1043 30.3594ZM65.8902 53.2212C73.9747 53.2212 80.4423 59.625 80.4423 67.6298C80.4423 75.6346 73.9747 82.0385 65.8902 82.0385C57.8057 82.0385 51.3381 75.6346 51.3381 67.6298C51.3381 59.625 57.8057 53.2212 65.8902 53.2212ZM65.8902 59.625C63.746 59.625 61.6897 60.4684 60.1736 61.9696C58.6574 63.4707 57.8057 65.5068 57.8057 67.6298C57.8057 69.7528 58.6574 71.7889 60.1736 73.2901C61.6897 74.7913 63.746 75.6346 65.8902 75.6346C68.0343 75.6346 70.0907 74.7913 71.6068 73.2901C73.1229 71.7889 73.9747 69.7528 73.9747 67.6298C73.9747 65.5068 73.1229 63.4707 71.6068 61.9696C70.0907 60.4684 68.0343 59.625 65.8902 59.625Z" fill="#D81159"/>
</svg>
