<svg width="123" height="54" viewBox="0 0 123 54" fill="none" xmlns="http://www.w3.org/2000/svg">
<path d="M7.72224 15.4344C11.9871 15.4344 15.4445 11.9793 15.4445 7.71721C15.4445 3.45513 11.9871 0 7.72224 0C3.45736 0 0 3.45513 0 7.71721C0 11.9793 3.45736 15.4344 7.72224 15.4344Z" fill="black" fill-opacity="0.15"/>
<path d="M53.3634 7.7172C53.3634 11.9753 49.9022 15.4343 45.6412 15.4343C41.3802 15.4343 37.9189 11.9753 37.9189 7.7172C37.9189 3.45906 41.3802 3.07543e-05 45.6412 3.07543e-05C49.9022 -0.0118968 53.3634 3.44714 53.3634 7.7172Z" fill="black" fill-opacity="0.15"/>
<path d="M89.1701 7.7172C89.1701 11.9753 85.7088 15.4343 81.4478 15.4343C77.1869 15.4343 73.7256 11.9753 73.7256 7.7172C73.7256 3.45906 77.1869 3.07543e-05 81.4478 3.07543e-05C85.7088 -0.0118968 89.1701 3.44714 89.1701 7.7172Z" fill="black" fill-opacity="0.15"/>
<path d="M122.876 7.7172C122.876 11.9753 119.415 15.4343 115.154 15.4343C110.893 15.4343 107.432 11.9753 107.432 7.7172C107.432 3.45906 110.893 3.07543e-05 115.154 3.07543e-05C119.415 -0.0118968 122.876 3.44714 122.876 7.7172Z" fill="black" fill-opacity="0.15"/>
<path d="M15.4445 45.599C15.4445 49.8572 11.9832 53.3161 7.72224 53.3161C3.46127 53.3161 0 49.8572 0 45.599C0 41.3409 3.46127 37.8818 7.72224 37.8818C11.9951 37.8818 15.4445 41.3409 15.4445 45.599Z" fill="black" fill-opacity="0.15"/>
<path d="M53.3634 45.599C53.3634 49.8572 49.9022 53.3161 45.6412 53.3161C41.3802 53.3161 37.9189 49.8572 37.9189 45.599C37.9189 41.3409 41.3802 37.8818 45.6412 37.8818C49.9022 37.8818 53.3634 41.3409 53.3634 45.599Z" fill="black" fill-opacity="0.15"/>
<path d="M89.1701 45.599C89.1701 49.8572 85.7088 53.3161 81.4478 53.3161C77.1869 53.3161 73.7256 49.8572 73.7256 45.599C73.7256 41.3409 77.1869 37.8818 81.4478 37.8818C85.7088 37.8818 89.1701 41.3409 89.1701 45.599Z" fill="black" fill-opacity="0.15"/>
<path d="M122.876 45.599C122.876 49.8572 119.415 53.3161 115.154 53.3161C110.893 53.3161 107.432 49.8572 107.432 45.599C107.432 41.3409 110.893 37.8818 115.154 37.8818C119.415 37.8818 122.876 41.3409 122.876 45.599Z" fill="black" fill-opacity="0.15"/>
</svg>
