<svg width="75" height="74" viewBox="0 0 75 74" fill="none" xmlns="http://www.w3.org/2000/svg">
<path d="M15.4346 16.7657C15.4346 13.9361 16.5729 11.2224 18.599 9.22157C20.6252 7.22074 23.3732 6.09668 26.2387 6.09668H37.0428V27.4348H26.2387C23.3732 27.4348 20.6252 26.3107 18.599 24.3099C16.5729 22.309 15.4346 19.5953 15.4346 16.7657Z" stroke="currentColor" stroke-width="5" stroke-linecap="round" stroke-linejoin="round"/>
<path d="M37.043 6.09668H47.8471C49.2659 6.09668 50.6708 6.37264 51.9816 6.90881C53.2924 7.44498 54.4835 8.23086 55.4867 9.22157C56.49 10.2123 57.2858 11.3884 57.8287 12.6829C58.3717 13.9773 58.6512 15.3646 58.6512 16.7657C58.6512 18.1668 58.3717 19.5542 57.8287 20.8486C57.2858 22.143 56.49 23.3192 55.4867 24.3099C54.4835 25.3006 53.2924 26.0865 51.9816 26.6226C50.6708 27.1588 49.2659 27.4348 47.8471 27.4348H37.043V6.09668Z" stroke="currentColor" stroke-width="5" stroke-linecap="round" stroke-linejoin="round"/>
<path d="M37.043 38.1036C37.043 36.7025 37.3224 35.3152 37.8654 34.0207C38.4083 32.7263 39.2042 31.5502 40.2074 30.5595C41.2107 29.5687 42.4017 28.7829 43.7125 28.2467C45.0233 27.7105 46.4282 27.4346 47.8471 27.4346C49.2659 27.4346 50.6708 27.7105 51.9816 28.2467C53.2924 28.7829 54.4835 29.5687 55.4867 30.5595C56.49 31.5502 57.2858 32.7263 57.8287 34.0207C58.3717 35.3152 58.6512 36.7025 58.6512 38.1036C58.6512 39.5047 58.3717 40.892 57.8287 42.1865C57.2858 43.4809 56.49 44.6571 55.4867 45.6478C54.4835 46.6385 53.2924 47.4244 51.9816 47.9605C50.6708 48.4967 49.2659 48.7727 47.8471 48.7727C46.4282 48.7727 45.0233 48.4967 43.7125 47.9605C42.4017 47.4244 41.2107 46.6385 40.2074 45.6478C39.2042 44.6571 38.4083 43.4809 37.8654 42.1865C37.3224 40.892 37.043 39.5047 37.043 38.1036V38.1036Z" stroke="currentColor" stroke-width="5" stroke-linecap="round" stroke-linejoin="round"/>
<path d="M15.4346 59.4415C15.4346 56.6119 16.5729 53.8982 18.599 51.8973C20.6252 49.8965 23.3732 48.7725 26.2387 48.7725H37.0428V59.4415C37.0428 62.2711 35.9045 64.9848 33.8783 66.9857C31.8521 68.9865 29.1041 70.1105 26.2387 70.1105C23.3732 70.1105 20.6252 68.9865 18.599 66.9857C16.5729 64.9848 15.4346 62.2711 15.4346 59.4415Z" stroke="currentColor" stroke-width="5" stroke-linecap="round" stroke-linejoin="round"/>
<path d="M15.4346 38.1036C15.4346 35.274 16.5729 32.5603 18.599 30.5595C20.6252 28.5586 23.3732 27.4346 26.2387 27.4346H37.0428V48.7727H26.2387C23.3732 48.7727 20.6252 47.6486 18.599 45.6478C16.5729 43.6469 15.4346 40.9332 15.4346 38.1036Z" stroke="currentColor" stroke-width="5" stroke-linecap="round" stroke-linejoin="round"/>
</svg>
