<svg width="778" height="672" viewBox="0 0 778 672" fill="none" xmlns="http://www.w3.org/2000/svg">
<path d="M559.993 803.212C560.886 728.455 560.886 728.455 573.573 726.095C585.453 723.934 596.549 718.668 605.736 710.831C614.922 702.994 621.87 692.866 625.876 681.475C627.853 677.567 629.004 673.295 629.257 668.923C629.51 664.551 628.861 660.174 627.349 656.065C623.51 640.996 607.256 622.382 590.72 613.518C578.906 607.021 575.652 607.021 420.534 605.543C245.042 603.772 253.299 604.655 220.494 582.791C187.401 560.928 166.425 520.152 166.425 478.191C166.425 457.508 166.425 457.508 391.87 458.396C617.033 459.283 617.033 459.283 640.949 467.557C672.558 478.35 701.054 496.693 723.967 520.995C746.88 545.297 763.516 574.823 772.433 607.01C777.75 627.38 778.638 635.377 777.473 674.674C775.713 725.802 771.279 743.529 750.601 778.398C717.492 835.109 656.587 871.461 587.471 876.193C583.476 876.491 580.044 876.715 577.109 876.715C559.382 876.741 559.481 867.58 559.993 803.212ZM100.804 604.911C74.0689 604.911 48.429 594.29 29.5247 575.386C10.6203 556.482 0 530.842 0 504.107V0H97.4557C111.714 0.00692004 125.387 5.67425 135.47 15.7567C145.552 25.8392 151.219 39.5119 151.226 53.7707V238.32C165.547 222.685 182.708 209.913 201.795 200.683C236.11 183.525 269.971 176.568 409.561 158.481C477.736 149.665 549.615 138.989 569.562 134.831C637.737 120.917 695.248 97.2677 713.33 75.4722C719.716 70.2547 727.82 67.6082 736.055 68.0503H752.283L749.499 113.49C746.715 171.465 735.12 199.748 703.124 228.041C668.344 259.572 621.964 272.562 403.068 311.52C365.985 318.007 314.951 328.677 289.448 334.71C230.548 349.548 167.94 380.15 154.956 400.577C153.816 402.502 152.57 404.361 151.221 406.145V588.108C151.221 592.565 149.451 596.839 146.3 599.99C143.149 603.141 138.875 604.911 134.419 604.911H100.804Z" fill="black" fill-opacity="0.05"/>
</svg>
