<svg width="22" height="22" viewBox="0 0 22 22" fill="none" xmlns="http://www.w3.org/2000/svg">
<path d="M22 0H0V22H22V0Z" fill="currentColor"/>
<path d="M5.24963 7.35842C5.268 7.17699 5.19881 6.99767 5.06334 6.87556L3.68337 5.21317V4.96484H7.96818L11.2801 12.2283L14.1918 4.96484H18.2766V5.21317L17.0967 6.34442C16.995 6.42196 16.9445 6.5494 16.9656 6.67552V14.9875C16.9445 15.1136 16.995 15.2411 17.0967 15.3186L18.249 16.4499V16.6982H12.4531V16.4499L13.6468 15.291C13.7641 15.1737 13.7641 15.1393 13.7641 14.9599V8.24135L10.4452 16.6706H9.99673L6.13281 8.24135V13.8907C6.1006 14.1282 6.17948 14.3674 6.34671 14.5391L7.89918 16.4223V16.6706H3.49707V16.4223L5.04954 14.5391C5.21555 14.3671 5.28983 14.1264 5.24963 13.8907V7.35842Z" fill="white"/>
</svg>
