<svg width="100" height="100" viewBox="0 0 100 100" fill="none" xmlns="http://www.w3.org/2000/svg">
<path fill-rule="evenodd" clip-rule="evenodd" d="M34.3362 17C32.8574 17 31 18.5101 31 21.2414V79.1726C31 81.9038 32.8574 83.414 34.3362 83.414H66.0173C67.4961 83.414 69.3536 81.9038 69.3536 79.1726V21.2414C69.3536 18.5101 67.4961 17 66.0173 17H34.3362ZM25 21.2414C25 15.974 28.8162 11 34.3362 11H66.0173C71.5373 11 75.3536 15.974 75.3536 21.2414V79.1726C75.3536 84.4399 71.5373 89.414 66.0173 89.414H34.3362C28.8162 89.414 25 84.4399 25 79.1726V21.2414Z" fill="#D81159"/>
<path fill-rule="evenodd" clip-rule="evenodd" d="M46.9824 77.3613C46.9824 75.7045 48.3256 74.3613 49.9824 74.3613H50.0154C51.6722 74.3613 53.0154 75.7045 53.0154 77.3613C53.0154 79.0182 51.6722 80.3613 50.0154 80.3613H49.9824C48.3256 80.3613 46.9824 79.0182 46.9824 77.3613Z" fill="#D81159"/>
<path fill-rule="evenodd" clip-rule="evenodd" d="M70.6445 72.2461H27.3535V66.2461H70.6445V72.2461Z" fill="#D81159"/>
</svg>
