<svg width="100" height="100" viewBox="0 0 100 100" fill="none" xmlns="http://www.w3.org/2000/svg">
<path fill-rule="evenodd" clip-rule="evenodd" d="M44.5062 10.4031C46.1009 9.4839 47.9093 9 49.75 9C51.5906 9 53.3989 9.48386 54.9935 10.403C54.9957 10.4042 54.9978 10.4055 55 10.4067L81.25 25.4067C82.8446 26.3274 84.1691 27.6512 85.0906 29.2453C86.0121 30.8395 86.4981 32.6479 86.5 34.4892V64.4954C86.4981 66.3367 86.012 68.1451 85.0906 69.7393C84.1691 71.3334 82.8446 72.6572 81.25 73.5779L81.2384 73.5845L55 88.5779C54.9979 88.5791 54.9957 88.5803 54.9936 88.5816C53.399 89.5007 51.5907 89.9846 49.75 89.9846C47.9092 89.9846 46.1009 89.5007 44.5062 88.5815C44.5041 88.5803 44.5021 88.5791 44.5 88.5779L18.25 73.5779C16.6554 72.6573 15.3309 71.3334 14.4094 69.7393C13.4879 68.1451 13.0019 66.3367 13 64.4954V34.4892C13.0019 32.6479 13.4879 30.8395 14.4094 29.2453C15.3309 27.6512 16.6554 26.3274 18.25 25.4067L18.2616 25.4001L44.5062 10.4031ZM49.75 15C48.9601 15 48.1841 15.2079 47.5 15.6029L47.4884 15.6096L21.25 30.6029C21.2484 30.6038 21.2468 30.6048 21.2452 30.6057C20.5639 31.0001 19.998 31.5664 19.604 32.248C19.2094 32.9308 19.0011 33.7053 19 34.494V64.4907C19.0011 65.2793 19.2094 66.0538 19.604 66.7366C19.998 67.4181 20.5638 67.9844 21.2449 68.3788C21.2466 68.3798 21.2483 68.3808 21.25 68.3817L47.5 83.3817C48.1841 83.7767 48.9601 83.9846 49.75 83.9846C50.5399 83.9846 51.3159 83.7767 52 83.3817L52.0116 83.3751L78.25 68.3817C78.2517 68.3807 78.2534 68.3798 78.2551 68.3788C78.9362 67.9843 79.502 67.4181 79.896 66.7366C80.2909 66.0534 80.4992 65.2784 80.5 64.4892V34.4954C80.4992 33.7063 80.2909 32.9312 79.896 32.248C79.502 31.5664 78.9361 31.0002 78.2549 30.6057C78.2533 30.6048 78.2516 30.6038 78.25 30.6029L52 15.6029C51.3159 15.208 50.5399 15 49.75 15Z" fill="#D81159"/>
<path fill-rule="evenodd" clip-rule="evenodd" d="M14.4134 29.0901C15.2431 27.6559 17.0782 27.1658 18.5124 27.9955L49.7478 46.064L80.9831 27.9955C82.4173 27.1658 84.2524 27.6559 85.0821 29.0901C85.9117 30.5243 85.4216 32.3595 83.9874 33.1891L51.2499 52.1266C50.3206 52.6642 49.1749 52.6642 48.2456 52.1266L15.5081 33.1891C14.0739 32.3595 13.5838 30.5243 14.4134 29.0901Z" fill="#D81159"/>
<path fill-rule="evenodd" clip-rule="evenodd" d="M49.75 46.4922C51.4069 46.4922 52.75 47.8353 52.75 49.4922V87.2922C52.75 88.949 51.4069 90.2922 49.75 90.2922C48.0931 90.2922 46.75 88.949 46.75 87.2922V49.4922C46.75 47.8353 48.0931 46.4922 49.75 46.4922Z" fill="#D81159"/>
</svg>
