<svg width="827" height="528" viewBox="0 0 827 528" fill="none" xmlns="http://www.w3.org/2000/svg">
<path d="M644.831 168.236H106.774V171.346H644.831V168.236Z" fill="#D1CFD0"/>
<path d="M143 155.351C145.656 155.351 147.809 153.194 147.809 150.534C147.809 147.874 145.656 145.718 143 145.718C140.344 145.718 138.191 147.874 138.191 150.534C138.191 153.194 140.344 155.351 143 155.351Z" fill="#D62800"/>
<path d="M164.766 155.351C167.421 155.351 169.574 153.194 169.574 150.534C169.574 147.874 167.421 145.718 164.766 145.718C162.11 145.718 159.957 147.874 159.957 150.534C159.957 153.194 162.11 155.351 164.766 155.351Z" fill="#F97F23"/>
<path d="M185.739 155.351C188.395 155.351 190.548 153.194 190.548 150.534C190.548 147.874 188.395 145.718 185.739 145.718C183.084 145.718 180.931 147.874 180.931 150.534C180.931 153.194 183.084 155.351 185.739 155.351Z" fill="#0F6D66"/>
<path d="M698.586 507.189H125.776C114.436 507.189 105.214 497.951 105.214 486.593V421.121H162.863C169.932 421.121 175.674 415.37 175.674 408.289V288.182C175.674 281.101 169.932 275.35 162.863 275.35H105.214V147.928C105.214 136.57 114.436 127.332 125.776 127.332H698.586C709.926 127.332 719.148 136.57 719.148 147.928V157.435H659.669C652.618 157.435 646.858 163.186 646.858 170.267V290.374C646.858 297.455 652.6 303.206 659.669 303.206H719.148V486.593C719.148 497.951 709.926 507.189 698.586 507.189ZM108.318 424.212V486.593C108.318 496.244 116.159 504.079 125.776 504.079H698.586C708.221 504.079 716.044 496.226 716.044 486.593V306.297H659.669C650.895 306.297 643.772 299.145 643.772 290.374V170.267C643.772 161.479 650.913 154.344 659.669 154.344H716.044V147.928C716.044 138.277 708.203 130.441 698.586 130.441H125.776C116.141 130.441 108.318 138.295 108.318 147.928V272.258H162.881C171.654 272.258 178.778 279.411 178.778 288.182V408.289C178.778 417.077 171.637 424.212 162.881 424.212H108.318V424.212Z" fill="#D1CFD0"/>
<path d="M790.199 306.297H659.668C650.895 306.297 643.771 299.144 643.771 290.374V170.267C643.771 161.479 650.913 154.344 659.668 154.344H790.199C798.973 154.344 806.096 161.497 806.096 170.267V290.374C806.096 299.162 798.955 306.297 790.199 306.297ZM659.668 157.435C652.617 157.435 646.858 163.186 646.858 170.267V290.374C646.858 297.455 652.599 303.206 659.668 303.206H790.199C797.269 303.206 803.01 297.455 803.01 290.374V170.267C803.01 163.186 797.269 157.435 790.199 157.435H659.668Z" fill="#D1CFD0"/>
<path d="M162.863 424.21H32.3501C23.5762 424.21 16.4531 417.057 16.4531 408.287V288.18C16.4531 279.392 23.5942 272.257 32.3501 272.257H162.881C171.655 272.257 178.778 279.41 178.778 288.18V408.287C178.778 417.075 171.637 424.21 162.863 424.21ZM32.3501 275.348C25.2808 275.348 19.5392 281.099 19.5392 288.18V408.287C19.5392 415.368 25.2808 421.119 32.3501 421.119H162.881C169.95 421.119 175.692 415.368 175.692 408.287V288.18C175.692 281.099 169.95 275.348 162.881 275.348H32.3501V275.348Z" fill="#D1CFD0"/>
<path d="M128.144 390.227H70.0288C61.8291 390.227 55.1904 383.577 55.1904 375.364V321.125C55.1904 312.911 61.8291 306.262 70.0288 306.262H128.144C136.344 306.262 142.982 312.911 142.982 321.125V375.364C142.982 383.559 136.344 390.227 128.144 390.227Z" fill="#D81159"/>
<path d="M753.993 266.596H695.877C687.678 266.596 681.039 259.946 681.039 251.733V205.473C681.039 197.26 687.678 190.61 695.877 190.61H753.993C762.193 190.61 768.831 197.26 768.831 205.473V251.733C768.831 259.946 762.193 266.596 753.993 266.596Z" fill="#FFBC42"/>
<path d="M318.262 92.0524H271.074C262.874 92.0524 256.235 85.4027 256.235 77.1895V32.7447C256.235 24.5315 262.874 17.8818 271.074 17.8818H318.262C326.462 17.8818 333.1 24.5315 333.1 32.7447V77.1715C333.1 85.3847 326.462 92.0524 318.262 92.0524Z" fill="#FFBC42"/>
<path d="M625.472 53.5205H503.643C501.239 53.5205 499.301 55.4615 499.301 57.8697V86.5171C499.301 88.9254 501.239 90.8664 503.643 90.8664H514.677L512.883 100.535L523.631 90.8664H625.472C627.876 90.8664 629.814 88.9254 629.814 86.5171V57.8697C629.796 55.4615 627.858 53.5205 625.472 53.5205Z" fill="#D81159"/>
<path d="M740.302 244.096H709.549C706.571 244.096 704.148 241.67 704.148 238.687V215.575C704.148 212.591 706.571 210.165 709.549 210.165H740.302C743.281 210.165 745.703 212.591 745.703 215.575V238.687C745.703 241.67 743.281 244.096 740.302 244.096ZM709.549 213.292C708.275 213.292 707.252 214.317 707.252 215.593V238.705C707.252 239.981 708.275 241.005 709.549 241.005H740.302C741.576 241.005 742.599 239.981 742.599 238.705V215.593C742.599 214.317 741.576 213.292 740.302 213.292H709.549V213.292Z" fill="white"/>
<path d="M724.925 230.618C724.62 230.618 724.298 230.528 724.046 230.33L704.83 216.851C704.13 216.366 703.951 215.395 704.453 214.694C704.938 213.994 705.907 213.814 706.606 214.317L724.943 227.167L743.281 214.317C743.98 213.832 744.949 213.994 745.434 214.694C745.918 215.395 745.757 216.366 745.057 216.851L725.841 230.33C725.553 230.528 725.231 230.618 724.925 230.618Z" fill="white"/>
<path d="M306.958 71.9777C306.832 71.9777 306.689 71.9777 306.563 71.9597C301.557 71.4205 296.695 69.6772 292.496 66.9455C288.603 64.4654 285.23 61.0866 282.736 57.1687C280.008 52.9453 278.286 48.0569 277.748 43.0607C277.64 41.8026 278.017 40.5985 278.806 39.646C279.596 38.6935 280.726 38.1004 281.946 37.9926C282.072 37.9746 282.215 37.9746 282.341 37.9746H287.006C287.024 37.9746 287.042 37.9746 287.042 37.9746C289.338 37.9746 291.312 39.682 291.635 41.9824C291.814 43.3662 292.155 44.7141 292.64 46.0081C293.268 47.6975 292.873 49.6205 291.599 50.9145L290.487 52.0287C292.299 54.8863 294.739 57.3125 297.592 59.1456L298.704 58.0314C299.996 56.7554 301.916 56.342 303.62 56.971C304.912 57.4563 306.258 57.7977 307.622 57.9775C309.972 58.301 311.677 60.3318 311.623 62.6861V67.3229C311.641 69.8749 309.559 71.9777 306.994 71.9956C306.976 71.9777 306.976 71.9777 306.958 71.9777ZM287.042 41.0658H282.359C281.372 41.1557 280.744 41.9105 280.816 42.7552C281.3 47.2661 282.861 51.6693 285.319 55.4973C287.562 59.0378 290.612 62.0931 294.147 64.3396C297.951 66.8197 302.347 68.3833 306.85 68.8685C307.819 68.8685 308.519 68.1676 308.519 67.3229V62.6682C308.519 62.6502 308.519 62.6502 308.519 62.6322C308.537 61.8414 307.963 61.1765 307.191 61.0507C305.612 60.835 304.033 60.4396 302.508 59.8825C301.934 59.6668 301.306 59.8106 300.875 60.224L298.92 62.1829C298.435 62.6682 297.664 62.776 297.054 62.4345C292.945 60.0982 289.518 56.6655 287.185 52.5499C286.844 51.9389 286.952 51.184 287.436 50.6808L289.41 48.7039C289.823 48.2726 289.966 47.6436 289.751 47.0685C289.195 45.5588 288.8 43.9773 288.585 42.3598C288.477 41.6409 287.813 41.0658 287.042 41.0658Z" fill="white"/>
<path d="M606.794 67.2865H516.4C515.539 67.2865 514.857 66.5856 514.857 65.7409C514.857 64.8962 515.557 64.1953 516.4 64.1953H606.794C607.656 64.1953 608.337 64.8962 608.337 65.7409C608.337 66.5856 607.638 67.2865 606.794 67.2865Z" fill="white"/>
<path d="M567.393 78.5746H516.4C515.539 78.5746 514.857 77.8737 514.857 77.029C514.857 76.1843 515.557 75.4834 516.4 75.4834H567.393C568.254 75.4834 568.936 76.1843 568.936 77.029C568.936 77.8737 568.254 78.5746 567.393 78.5746Z" fill="white"/>
<path d="M121.847 356.152C122.708 353.671 123.192 351.012 123.192 348.244C123.192 345.476 122.726 342.816 121.847 340.336C121.829 340.264 121.793 340.192 121.775 340.121C118.438 330.847 109.556 324.197 99.1674 324.197C88.7788 324.197 79.8973 330.847 76.56 340.121C76.5241 340.192 76.5062 340.264 76.4883 340.336C75.627 342.816 75.1426 345.476 75.1426 348.244C75.1426 351.012 75.6091 353.671 76.4883 356.152C76.5062 356.223 76.5421 356.295 76.56 356.367C79.8973 365.641 88.7788 372.29 99.1674 372.29C109.556 372.29 118.438 365.641 121.775 356.367C121.793 356.295 121.829 356.223 121.847 356.152ZM99.1495 368.84C98.2344 368.84 96.7631 367.186 95.5251 363.484C94.933 361.705 94.4486 359.638 94.1077 357.41H104.191C103.85 359.638 103.366 361.705 102.774 363.484C101.554 367.186 100.065 368.84 99.1495 368.84ZM93.695 353.959C93.5335 352.126 93.4438 350.203 93.4438 348.244C93.4438 346.285 93.5335 344.362 93.695 342.529H104.622C104.783 344.362 104.873 346.285 104.873 348.244C104.873 350.203 104.783 352.126 104.622 353.959H93.695ZM78.5696 348.226C78.5696 346.249 78.8567 344.326 79.377 342.511H90.2321C90.0706 344.38 89.9809 346.303 89.9809 348.226C89.9809 350.149 90.0706 352.072 90.2321 353.941H79.377C78.8567 352.144 78.5696 350.221 78.5696 348.226ZM99.1495 327.612C100.065 327.612 101.536 329.265 102.774 332.968C103.366 334.747 103.85 336.814 104.191 339.042H94.1077C94.4486 336.814 94.933 334.747 95.5251 332.968C96.7631 329.283 98.2344 327.612 99.1495 327.612ZM108.067 342.511H118.922C119.442 344.326 119.729 346.249 119.729 348.226C119.729 350.203 119.442 352.126 118.922 353.941H108.067C108.228 352.072 108.318 350.149 108.318 348.226C108.318 346.303 108.228 344.38 108.067 342.511ZM117.576 339.06H107.672C107.062 334.837 106.003 331.027 104.532 328.331C110.256 329.894 114.993 333.848 117.576 339.06ZM93.7847 328.331C92.3134 331.027 91.2548 334.819 90.6448 339.06H80.7406C83.3243 333.848 88.0611 329.894 93.7847 328.331ZM80.7227 357.41H90.6268C91.2369 361.633 92.2955 365.443 93.7668 368.139C88.0611 366.575 83.3243 362.622 80.7227 357.41ZM104.532 368.121C106.003 365.425 107.062 361.633 107.672 357.392H117.576C114.993 362.622 110.256 366.575 104.532 368.121Z" fill="white"/>
<path d="M331.019 504.941C331.019 504.941 335.774 406.778 324.129 376.189C312.484 345.619 238.042 374.518 238.042 374.518C238.042 374.518 221.947 432.999 229.788 504.941H272.347L279.811 427.535H283.813L290.451 504.941H331.019Z" fill="#252525"/>
<path d="M231.778 340.138C231.778 340.138 229.625 349.088 227.024 359.8C224.027 372.164 220.421 386.884 218.806 392.868C215.792 404.047 210.05 446.982 210.05 446.982C216.994 456.058 216.994 464.523 216.187 466.949C215.361 469.375 212.76 465.745 212.76 463.318C212.76 460.892 209.745 455.77 208.041 458.161C206.336 460.587 206.426 467.83 210.355 471.783C214.285 475.701 214.59 480.841 214.59 480.841C188.035 471.783 200.774 447.287 200.774 447.287C194.799 434.905 204.022 370.799 206.139 357.499C207.054 351.694 208.095 343.194 208.956 335.466C210.104 325.419 210.965 316.631 210.965 316.631L231.778 340.138Z" fill="#F4A79C"/>
<path d="M231.78 340.138C231.78 340.138 229.627 349.088 227.025 359.8L208.939 335.466C210.088 325.419 210.949 316.631 210.949 316.631L231.78 340.138Z" fill="#E58177"/>
<path d="M272.113 143.489C240.947 148.79 241.019 172.711 241.539 181.014C242.06 189.317 183.245 227.148 251.569 250.045H298.076C298.076 250.045 346.897 242.065 325.061 196.776C320.432 190.144 309.38 175.659 307.855 170.644C306.329 165.63 297.807 139.121 272.113 143.489Z" fill="#092547"/>
<path d="M329.099 269.812L322.209 376.89L238.023 374.499L208.472 318.948C208.472 318.948 206.211 281.44 212.079 272.49C214.967 268.051 226.899 261.689 238.221 256.387C249.793 250.96 260.756 246.628 260.756 246.628L260.021 223.031C251.498 218.826 249.758 205.796 249.758 205.796C237.754 203.352 235.996 194.15 239.495 189.711C241.773 186.817 247.82 192.029 248.412 192.497C248.376 192.443 248.34 192.407 248.268 192.335C246.743 190.807 246.869 187.536 248.035 184.984C253.167 179.269 254.674 165.161 254.674 165.161C262.927 175.172 297.161 176.232 297.161 176.232C297.161 181.606 303.441 186.134 303.441 186.134C303.441 186.134 303.011 189.927 302.688 191.921C303.19 190.951 304.231 189.927 304.733 189.172C305.433 188.111 315.086 185.667 311.713 195.803C308.339 205.94 301.127 205.023 301.127 205.023C298.328 215.519 289.482 222.168 289.482 222.168L289.123 244.454C299.225 248.21 307.137 252.433 313.166 256.369C324.38 263.63 329.099 269.812 329.099 269.812Z" fill="#F4A79C"/>
<path d="M329.099 269.814L322.209 376.891L238.023 374.501L208.472 318.949C208.472 318.949 206.211 281.442 212.079 272.492C214.967 268.052 226.899 261.69 238.221 256.389C238.221 256.389 270.714 278.674 313.184 256.389C324.38 263.631 329.099 269.814 329.099 269.814Z" fill="#FFBC42"/>
<path d="M275.003 226.177C270.213 226.106 265.009 225.351 260.649 223.14C260.937 223.284 260.488 222.871 260.649 223.14C261.385 224.47 263.502 226.681 264.507 227.831C272.258 236.709 285.195 232.773 288.962 222.313C288.765 222.835 286.289 223.607 285.751 223.841C284.513 224.38 283.257 224.848 281.965 225.243C279.668 225.926 277.336 226.231 275.003 226.177Z" fill="#E58177"/>
<path d="M254.333 185.219C254.118 185.219 253.921 185.166 253.723 185.04C253.185 184.698 253.006 183.997 253.347 183.458C253.508 183.189 257.419 177.006 268.705 178.354C269.333 178.426 269.8 179.001 269.728 179.648C269.656 180.277 269.082 180.744 268.436 180.672C258.711 179.504 255.464 184.465 255.338 184.68C255.105 185.022 254.728 185.219 254.333 185.219Z" fill="#092547"/>
<path d="M293.806 184.016C293.465 184.016 293.106 183.854 292.891 183.567C289.302 178.894 280.008 180.458 279.918 180.476C279.29 180.583 278.68 180.17 278.573 179.523C278.465 178.894 278.878 178.283 279.506 178.175C279.936 178.103 290.271 176.342 294.721 182.129C295.116 182.632 295.026 183.369 294.506 183.765C294.308 183.926 294.057 184.016 293.806 184.016Z" fill="#092547"/>
<path d="M275.127 201.447C273.925 201.447 272.867 201.07 272.185 200.315C271.252 199.291 271.216 197.781 272.077 196.146C273.782 192.929 272.723 187.986 272.705 187.95C272.615 187.537 272.867 187.124 273.297 187.034C273.71 186.944 274.123 187.195 274.212 187.627C274.266 187.842 275.414 193.162 273.441 196.9C273.064 197.619 272.723 198.626 273.333 199.291C273.943 199.938 275.468 200.207 277.227 199.452C277.621 199.273 278.07 199.47 278.249 199.866C278.411 200.261 278.231 200.71 277.837 200.89C276.904 201.25 275.971 201.447 275.127 201.447Z" fill="#E58177"/>
<path d="M263.86 204.431C267.323 205.258 275.918 206.768 284.602 204.036C284.656 204.018 284.691 204.054 284.673 204.108C284.207 205.006 281.857 212.141 274.59 212.141C269.028 212.141 264.632 207.558 263.161 205.474C262.802 204.97 263.268 204.288 263.86 204.431Z" fill="white"/>
<path d="M303.908 198.411C303.818 198.411 303.711 198.393 303.621 198.357C303.226 198.196 303.029 197.746 303.19 197.351C303.441 196.722 305.792 191.205 309.309 191.097C309.703 191.097 310.098 191.42 310.098 191.851C310.116 192.283 309.775 192.642 309.345 192.642C307.209 192.714 305.2 196.47 304.608 197.926C304.5 198.232 304.213 198.411 303.908 198.411Z" fill="#E58177"/>
<path d="M247.91 198.411C247.623 198.411 247.336 198.249 247.21 197.961C245.506 194.259 241.81 194.942 241.648 194.978C241.235 195.068 240.823 194.798 240.733 194.367C240.643 193.954 240.912 193.54 241.343 193.45C243.084 193.091 246.851 193.433 248.628 197.297C248.807 197.692 248.646 198.141 248.251 198.321C248.125 198.393 248.018 198.411 247.91 198.411Z" fill="#E58177"/>
<path d="M262.963 192.642C264.489 192.642 265.726 191.403 265.726 189.874C265.726 188.346 264.489 187.106 262.963 187.106C261.437 187.106 260.2 188.346 260.2 189.874C260.2 191.403 261.437 192.642 262.963 192.642Z" fill="#092547"/>
<path d="M286.199 192.642C287.725 192.642 288.962 191.403 288.962 189.874C288.962 188.346 287.725 187.106 286.199 187.106C284.673 187.106 283.436 188.346 283.436 189.874C283.436 191.403 284.673 192.642 286.199 192.642Z" fill="#092547"/>
<path d="M580.239 369.414L582.212 373.476C582.212 373.476 588.977 394 590.681 415.746C592.368 437.51 592.099 505.624 592.099 505.624H549.216L544.139 432.694H538.218L531.722 505.624H512.542L523.971 373.476H582.212" fill="#886D69"/>
<path d="M664.262 283.597L645.8 318.049C644.705 320.08 645.495 322.614 647.558 323.674L660.046 330.036C662.02 331.043 664.442 330.306 665.518 328.347L684.519 293.697C685.668 291.612 684.824 289.006 682.671 288L669.645 281.817C667.671 280.883 665.303 281.656 664.262 283.597Z" fill="#0074FF"/>
<path d="M661.93 332.05C661.069 332.05 660.172 331.852 659.346 331.421L646.858 325.059C645.495 324.358 644.49 323.172 644.023 321.698C643.557 320.224 643.718 318.679 644.436 317.331L662.899 282.878C664.334 280.219 667.582 279.14 670.309 280.434L683.335 286.617C684.735 287.282 685.829 288.522 686.296 289.995C686.762 291.469 686.619 293.105 685.865 294.47L666.864 329.121C665.841 330.99 663.922 332.05 661.93 332.05ZM667.887 282.968C666.972 282.968 666.093 283.454 665.626 284.316L647.163 318.769C646.84 319.38 646.769 320.081 646.984 320.746C647.199 321.411 647.648 321.95 648.276 322.273L660.764 328.635C662.002 329.264 663.509 328.797 664.173 327.575L683.174 292.925C683.515 292.296 683.586 291.577 683.371 290.894C683.156 290.211 682.671 289.672 682.025 289.366L668.999 283.184C668.64 283.058 668.264 282.968 667.887 282.968Z" fill="black"/>
<path d="M660.495 331.943C660.495 331.943 655.489 337.82 647.236 336.922C647.236 336.922 631.59 369.002 627.087 376.37C622.601 383.757 615.047 394.198 607.493 392.94C599.94 391.664 596.333 381.205 593.283 369.415C590.215 357.625 584.294 328.798 584.294 328.798C584.294 328.798 584.653 317.44 590.053 316.541C595.436 315.643 611.997 317.081 611.997 317.081L615.675 338.072L617.398 347.867C617.398 347.867 636.65 328.421 636.65 325.887C636.65 323.353 637.009 298.677 660.746 307.699C660.746 307.699 663.079 310.754 659.311 311.653C655.525 312.552 651.596 306.837 647.451 314.025C645.28 317.817 644.365 320.208 643.917 321.322C643.701 321.861 644.921 323.047 645.567 323.425L660.495 331.943Z" fill="#B7824E"/>
<path d="M617.38 347.884C617.38 347.884 606.381 365.137 606.381 361.524C606.381 359.026 612.087 345.997 615.657 338.089L617.38 347.884Z" fill="#A06B3C"/>
<path d="M569.401 164.479C580.628 164.479 589.73 155.363 589.73 144.117C589.73 132.871 580.628 123.755 569.401 123.755C558.174 123.755 549.072 132.871 549.072 144.117C549.072 155.363 558.174 164.479 569.401 164.479Z" fill="#242B29"/>
<path d="M543.493 216.024C561.706 216.024 576.471 200.664 576.471 181.716C576.471 162.768 561.706 147.407 543.493 147.407C525.279 147.407 510.515 162.768 510.515 181.716C510.515 200.664 525.279 216.024 543.493 216.024Z" fill="#242B29"/>
<path d="M618.474 319.398L589.228 323.387C589.228 323.387 586.787 337.945 585.962 342.833C585.155 347.74 581.584 370.205 582.23 373.475H523.989L486.095 276.031C486.095 276.031 501.256 256.567 524.438 248.031C524.653 247.941 524.868 247.869 525.084 247.779C525.084 247.779 529.892 247.186 530.179 243.735C530.484 240.285 529.731 225.566 529.731 225.566C529.731 225.566 520.131 218.808 517.889 208.744C517.889 208.744 509.797 209.481 507.087 199.578C504.414 189.676 513.654 191.94 515.736 196.02C515.664 195.499 515.054 191.329 516.525 189.532C518.104 187.627 523.594 179.863 523.594 177.94C523.594 177.94 551.297 176.933 561.74 169.188C561.614 169.547 559.318 175.244 557.057 175.927C557.057 175.927 561.094 176.376 563.785 171.434C563.785 171.434 564.126 179.521 566.71 182.613C569.276 185.722 572.093 190.988 569.85 196.056C569.85 196.056 572.2 196.954 573.546 192.12C573.546 192.12 578.372 189.532 579.718 194.582C581.064 199.65 574.892 207.522 568.701 208.87C568.701 208.87 566.459 221.36 557.577 226.41C557.577 226.41 556.232 243.843 558.474 245.317C558.977 245.64 561.13 246.611 564.306 248.193C575.322 253.638 598.576 266.362 607.493 284.622C618.994 308.147 618.474 319.398 618.474 319.398Z" fill="#B7824E"/>
<path d="M618.474 319.399L589.228 323.389C589.228 323.389 586.787 337.946 585.962 342.835C585.155 347.741 581.584 370.206 582.23 373.477H523.989L486.095 276.033C486.095 276.033 501.256 256.569 524.438 248.032C526.555 250.315 530.287 253.981 533.265 255.149C537.733 256.928 542.254 258.923 543.636 264.674C543.636 264.674 545 257.144 552.284 255.383C557.846 254.035 562.26 250.746 564.324 248.194C575.34 253.64 598.593 266.364 607.511 284.623C618.994 308.149 618.474 319.399 618.474 319.399Z" fill="#FFBC42"/>
<path d="M543.492 229.772C538.701 229.521 533.982 227.903 529.712 225.549C529.981 225.693 530.322 226.951 530.465 227.22C531.147 228.586 531.991 229.88 532.942 231.048C540.37 240.196 553.432 236.709 557.576 226.394C557.361 226.915 554.867 227.598 554.311 227.813C553.055 228.299 551.781 228.748 550.471 229.071C548.175 229.682 545.824 229.898 543.492 229.772Z" fill="#A06B3C"/>
<path d="M544.353 205.85C543.51 205.85 542.649 205.814 541.895 205.707C541.465 205.653 541.088 205.401 540.837 205.006C539.581 203.119 541.088 196.9 541.411 195.66C541.518 195.247 541.949 194.995 542.362 195.103C542.774 195.211 543.026 195.624 542.918 196.056C541.949 199.83 541.59 203.694 542.164 204.179C544.12 204.449 547.314 204.161 547.35 204.161C547.744 204.125 548.157 204.431 548.193 204.862C548.229 205.293 547.924 205.671 547.493 205.707C547.386 205.725 545.95 205.85 544.353 205.85Z" fill="#844618"/>
<path d="M534.359 208.564H552.876C552.876 208.564 549.252 215.645 543.313 215.196C537.374 214.747 534.359 208.564 534.359 208.564Z" fill="white"/>
<path d="M522.662 186.675C522.375 186.675 522.106 186.603 521.837 186.441C521.119 185.992 520.886 185.039 521.334 184.32C521.388 184.23 526.556 176.089 537.465 181.804C538.218 182.2 538.505 183.134 538.11 183.889C537.716 184.644 536.783 184.949 536.029 184.536C527.74 180.187 524.115 185.704 523.954 185.938C523.685 186.423 523.182 186.675 522.662 186.675Z" fill="#242B29"/>
<path d="M563.623 185.633C563.157 185.633 562.69 185.417 562.385 185.004C558.618 179.972 550.256 182.758 550.167 182.775C549.359 183.045 548.48 182.614 548.211 181.805C547.942 180.996 548.372 180.116 549.18 179.828C549.61 179.684 559.748 176.288 564.879 183.117C565.4 183.8 565.256 184.77 564.574 185.292C564.269 185.525 563.946 185.633 563.623 185.633Z" fill="#242B29"/>
<path d="M530.61 195.858C532.057 195.858 533.229 194.683 533.229 193.234C533.229 191.785 532.057 190.61 530.61 190.61C529.163 190.61 527.99 191.785 527.99 193.234C527.99 194.683 529.163 195.858 530.61 195.858Z" fill="#242B29"/>
<path d="M554.904 195.858C556.351 195.858 557.523 194.683 557.523 193.234C557.523 191.785 556.351 190.61 554.904 190.61C553.457 190.61 552.284 191.785 552.284 193.234C552.284 194.683 553.457 195.858 554.904 195.858Z" fill="#242B29"/>
<path d="M515.161 203.335C514.82 203.335 514.497 203.101 514.408 202.76C513.241 198.231 510.209 198.662 510.173 198.68C509.743 198.752 509.348 198.465 509.294 198.033C509.222 197.602 509.509 197.207 509.94 197.153C509.994 197.135 514.408 196.506 515.915 202.383C516.023 202.796 515.771 203.227 515.359 203.335C515.287 203.317 515.233 203.335 515.161 203.335Z" fill="#844618"/>
<path d="M570.209 203.335C570.083 203.335 569.958 203.299 569.832 203.245C569.455 203.03 569.33 202.562 569.527 202.185C569.922 201.484 573.403 195.41 576.866 196.416C577.278 196.542 577.511 196.955 577.404 197.368C577.296 197.782 576.865 198.015 576.453 197.908C574.73 197.404 572.129 200.729 570.891 202.958C570.747 203.191 570.496 203.335 570.209 203.335Z" fill="#844618"/>
<path d="M529.067 206.534C522.608 206.534 517.351 201.268 517.351 194.798C517.351 188.328 522.608 183.062 529.067 183.062C535.526 183.062 540.783 188.328 540.783 194.798C540.783 201.268 535.526 206.534 529.067 206.534ZM529.067 184.608C523.451 184.608 518.894 189.173 518.894 194.798C518.894 200.423 523.451 204.988 529.067 204.988C534.683 204.988 539.24 200.423 539.24 194.798C539.24 189.173 534.683 184.608 529.067 184.608Z" fill="white"/>
<path d="M556.645 205.941C550.186 205.941 544.929 200.675 544.929 194.205C544.929 187.736 550.186 182.47 556.645 182.47C563.104 182.47 568.361 187.736 568.361 194.205C568.361 200.675 563.104 205.941 556.645 205.941ZM556.645 183.997C551.029 183.997 546.472 188.562 546.472 194.187C546.472 199.813 551.029 204.378 556.645 204.378C562.261 204.378 566.818 199.813 566.818 194.187C566.818 188.58 562.261 183.997 556.645 183.997Z" fill="white"/>
<path d="M545.682 194.025H540.012V195.571H545.682V194.025Z" fill="white"/>
<path d="M480.371 470.31H341.587V505.625H480.371V470.31Z" fill="#022E42"/>
<path d="M387.628 120.519C387.628 120.519 397.783 100.714 418.112 107.867C438.44 115.02 449.152 122.999 445.581 145.554C442.011 168.109 440.36 172.512 440.36 172.512L370.869 170.589C370.869 170.589 370.044 155.727 368.68 151.881C367.317 148.034 357.951 117.23 387.628 120.519Z" fill="#242B29"/>
<path d="M170.093 246.738C170.919 246.127 172.103 246.288 172.731 247.115L183.999 261.726C184.483 262.337 185.362 262.463 185.972 261.978C186.493 261.565 186.654 260.864 186.367 260.271L177.181 241.076C176.642 239.854 177.109 238.417 178.275 237.77C179.495 237.087 181.02 237.5 181.738 238.686L192.342 256.245C192.791 257 193.759 257.287 194.549 256.91L194.657 256.856C195.446 256.478 195.823 255.598 195.572 254.771L188.233 231.515C187.856 230.311 188.431 229.017 189.597 228.514C190.817 227.975 192.252 228.514 192.826 229.736L202.82 251.321C203.269 252.273 204.435 252.615 205.314 252.039C205.853 251.68 206.158 251.069 206.086 250.422L203.933 230.114C203.789 228.748 204.866 227.562 206.229 227.562C207.306 227.562 208.239 228.298 208.472 229.341C209.979 235.883 215.183 258.384 216.187 262.859C217.372 268.106 220.547 250.476 226.773 248.804C235.709 246.414 223.974 268.43 223.634 271.144C223.293 273.857 220.081 285.899 217.713 290.482L270.373 351.712L285.445 332.213L329.099 365.119C329.099 365.119 296.246 407.785 282.054 411.954C267.861 416.142 258.675 409.438 248.932 393.551C239.19 377.664 197.707 300.708 197.707 300.708C197.707 300.708 179.334 284.533 178.221 265.572L169.537 249.182C169.089 248.337 169.322 247.295 170.093 246.738Z" fill="#F4A99D"/>
<path d="M200.775 284.191C200.362 284.191 200.021 283.868 200.003 283.436C200.003 283.257 199.537 265.842 216.08 263.469C216.492 263.398 216.887 263.703 216.959 264.134C217.013 264.566 216.726 264.943 216.295 265.015C201.152 267.19 201.528 282.717 201.546 283.382C201.564 283.814 201.223 284.173 200.793 284.191C200.793 284.173 200.775 284.191 200.775 284.191Z" fill="#C45853"/>
<path d="M534.952 364.49L490.257 372.775L486.938 474.605L338.249 475.935L335.935 363.16L329.332 370.457C329.332 370.457 285.947 344.254 280.313 328.654C280.313 328.654 303.836 263.649 369.056 246.719C369.056 246.719 382.962 244.743 382.962 238.758C382.962 237.805 382.98 236.296 383.016 234.409C383.177 224.506 383.644 204.593 383.644 204.593C383.644 204.593 376.251 193.792 375.57 187.34C375.57 187.34 368.446 192.444 363.01 185.291C357.555 178.138 358.883 165.774 370.887 170.59C370.887 170.59 373.542 172.531 373.363 168.11C373.201 163.689 368.644 138.456 384.146 128.877C384.146 128.877 395.611 145.555 418.936 143.704C442.261 141.835 441.131 159.465 439.48 166.51C437.812 173.555 441.239 169.224 441.239 169.224C441.239 169.224 447.967 165.863 451.484 170.536C455.018 175.209 453.906 191.33 437.614 187.807C437.614 187.807 435.766 200.603 430.778 205.779C430.778 205.779 430.724 206.75 430.653 208.403C430.527 211.207 430.348 215.951 430.24 220.948C430.078 229.7 430.168 239.189 431.334 240.447C432.07 241.238 438.135 243.556 446.603 247.295C463.828 254.915 490.957 268.394 503.158 286.851C521.369 314.402 531.973 340.929 534.952 364.49Z" fill="#F4A79C"/>
<path d="M430.778 205.798C430.778 205.798 430.724 206.768 430.653 208.422C430.653 208.422 406.574 250.351 387.053 208.458C387.788 209.356 406.413 232.001 430.778 205.798Z" fill="#C9827B"/>
<path d="M534.952 364.49L490.257 372.776L486.938 474.605L338.249 475.935L335.935 363.161L329.332 370.457C329.332 370.457 285.947 344.254 280.313 328.654C280.313 328.654 303.836 263.649 369.056 246.72L401.963 270.011C405.39 272.438 409.929 272.456 413.374 270.101L446.621 247.295C463.846 254.915 490.975 268.394 503.176 286.851C521.369 314.402 531.973 340.929 534.952 364.49Z" fill="#D81159"/>
<path d="M483.314 373.476L486.096 505.624H517.836L525.73 366.197L483.314 373.476Z" fill="#F4A89C"/>
<path d="M378.585 158.639C378.351 158.639 378.118 158.585 377.903 158.478C377.131 158.1 376.826 157.166 377.203 156.411C377.257 156.285 383.537 143.938 398.895 149.33C399.703 149.617 400.133 150.498 399.846 151.307C399.559 152.115 398.68 152.529 397.873 152.259C385.151 147.784 380.181 157.381 379.984 157.777C379.697 158.334 379.159 158.639 378.585 158.639Z" fill="#242B29"/>
<path d="M431.854 158.638C431.298 158.638 430.76 158.332 430.491 157.811C425.808 148.915 413.984 152.653 413.481 152.815C412.674 153.084 411.795 152.635 411.526 151.826C411.256 151.018 411.705 150.137 412.512 149.867C417.608 148.196 428.499 147.387 433.236 156.355C433.631 157.11 433.343 158.045 432.59 158.458C432.339 158.584 432.087 158.638 431.854 158.638Z" fill="#242B29"/>
<path d="M407.203 193.36C400.026 193.36 394.769 188.292 394.697 188.22C394.392 187.914 394.392 187.429 394.679 187.124C394.984 186.818 395.468 186.818 395.773 187.106C396.222 187.537 406.682 197.565 418.004 187.088C418.309 186.8 418.811 186.818 419.098 187.124C419.386 187.447 419.368 187.932 419.063 188.22C414.9 192.066 410.809 193.36 407.203 193.36Z" fill="#C45853"/>
<path d="M407.13 185.022C406.197 185.022 405.444 184.752 404.852 184.195C401.568 181.158 405.695 170.662 406.179 169.476C406.341 169.081 406.789 168.883 407.184 169.045C407.579 169.207 407.776 169.656 407.615 170.051C405.946 174.149 404.026 181.302 405.91 183.045C406.879 183.944 408.978 183.207 410.557 182.416C410.934 182.218 411.401 182.38 411.598 182.758C411.795 183.135 411.634 183.602 411.257 183.8C409.624 184.627 408.261 185.022 407.13 185.022Z" fill="#C45853"/>
<path d="M439.122 181.787C439.014 181.787 438.889 181.769 438.781 181.697C438.404 181.499 438.243 181.032 438.44 180.654C440.055 177.419 444.558 171.92 450.067 174.202C450.461 174.364 450.641 174.814 450.479 175.209C450.318 175.604 449.869 175.784 449.475 175.622C443.93 173.322 439.858 181.265 439.822 181.337C439.678 181.625 439.409 181.787 439.122 181.787Z" fill="#C45853"/>
<path d="M374.87 183.619C374.494 183.619 374.171 183.35 374.099 182.972C373.166 177.239 364.571 175.208 364.482 175.19C364.069 175.101 363.8 174.687 363.908 174.256C363.997 173.843 364.41 173.573 364.841 173.663C365.235 173.753 374.547 175.945 375.642 182.703C375.714 183.134 375.427 183.53 374.996 183.601C374.96 183.619 374.906 183.619 374.87 183.619Z" fill="#C45853"/>
<path d="M391.97 170.625C393.803 170.625 395.289 169.137 395.289 167.3C395.289 165.464 393.803 163.976 391.97 163.976C390.137 163.976 388.65 165.464 388.65 167.3C388.65 169.137 390.137 170.625 391.97 170.625Z" fill="#242B29"/>
<path d="M420.175 170.625C422.008 170.625 423.494 169.137 423.494 167.3C423.494 165.464 422.008 163.976 420.175 163.976C418.342 163.976 416.855 165.464 416.855 167.3C416.855 169.137 418.342 170.625 420.175 170.625Z" fill="#242B29"/>
<path d="M388.65 184.626C380.164 184.626 373.256 177.707 373.256 169.206C373.256 160.705 380.164 153.786 388.65 153.786C397.137 153.786 404.045 160.705 404.045 169.206C404.045 177.689 397.137 184.626 388.65 184.626ZM388.65 156.087C381.438 156.087 375.57 161.963 375.57 169.188C375.57 176.413 381.438 182.29 388.65 182.29C395.863 182.29 401.73 176.413 401.73 169.188C401.73 161.963 395.863 156.087 388.65 156.087Z" fill="white"/>
<path d="M423.494 184.626C415.007 184.626 408.1 177.707 408.1 169.206C408.1 160.705 415.007 153.786 423.494 153.786C431.981 153.786 438.889 160.705 438.889 169.206C438.907 177.689 431.999 184.626 423.494 184.626ZM423.494 156.087C416.281 156.087 410.414 161.963 410.414 169.188C410.414 176.413 416.281 182.29 423.494 182.29C430.707 182.29 436.574 176.413 436.574 169.188C436.574 161.963 430.707 156.087 423.494 156.087Z" fill="white"/>
<path d="M409.247 168.02H402.878V170.338H409.247V168.02Z" fill="white"/>
<path d="M440.18 345.889C434.044 345.889 428.32 343.444 424.068 339.023C419.816 334.584 417.609 328.761 417.842 322.615L418.685 300.851H462.536V323.495C462.536 335.842 452.507 345.889 440.18 345.889ZM421.664 303.96L420.928 322.741C420.713 328.024 422.633 333.056 426.293 336.867C429.953 340.677 434.887 342.779 440.18 342.779C450.802 342.779 459.45 334.117 459.45 323.477V303.942H421.664V303.96Z" fill="#8C0C3B"/>
<path d="M484.522 306.763L481.758 373.415L484.859 373.544L487.623 306.892L484.522 306.763Z" fill="#8C0C3B"/>
<path d="M333.605 304.992L330.508 305.199L334.38 363.282L337.478 363.075L333.605 304.992Z" fill="#8C0C3B"/>
</svg>
